<svg width="3875" height="2045" viewBox="0 0 3875 2045" fill="none" xmlns="http://www.w3.org/2000/svg">
<path d="M777.25 308.947C799.67 313.93 822.091 336.353 837.038 353.794C906.791 431.03 916.756 535.674 916.756 635.334C916.756 946.772 615.323 1233.3 313.889 1263.19C622.796 1185.96 894.335 964.213 894.335 622.876C894.335 607.927 894.335 595.47 891.844 580.521C891.844 680.181 851.985 817.214 802.162 901.925C724.935 1031.48 647.708 1103.74 508.202 1163.53C450.905 1188.45 386.134 1210.87 321.363 1210.87C291.469 1210.87 259.083 1205.89 231.68 1188.45V1208.38C231.68 1245.75 234.171 1290.6 246.627 1327.97C214.242 1265.68 206.768 1185.96 206.768 1116.19C206.768 869.536 313.889 553.114 528.131 413.59C510.693 418.573 498.237 431.03 483.29 440.996C356.239 535.674 259.083 734.994 221.715 886.976C239.154 774.858 298.942 645.3 356.239 548.131C226.698 712.571 179.365 936.806 179.365 1143.6C179.365 1350.4 269.048 1629.44 508.202 1659.34C308.907 1629.44 191.821 1345.41 191.821 1166.02C206.768 1375.31 328.836 1639.41 570.481 1639.41C714.97 1639.41 752.338 1529.78 792.197 1417.67L797.179 1402.72L804.653 1455.04C819.6 1462.51 834.547 1482.45 834.547 1499.89C834.547 1524.8 822.091 1552.21 812.126 1574.63C757.32 1696.72 642.726 1771.46 508.202 1771.46C286.486 1771.46 119.577 1597.06 62.2796 1392.75C54.8061 1365.35 47.3325 1335.45 39.859 1308.04C79.7179 1572.14 219.224 1836.24 520.658 1836.24C580.446 1836.24 642.726 1823.78 700.023 1801.36C640.235 1828.77 572.973 1843.71 505.711 1843.71C166.909 1843.71 0 1479.95 0 1185.96C0 1153.57 2.49119 1118.69 4.98237 1086.3C27.403 827.18 92.1739 612.91 281.504 426.047C386.134 321.404 525.64 244.168 677.602 244.168C742.373 244.168 829.565 259.117 869.424 313.93C824.582 269.083 752.338 251.642 690.058 251.642C553.043 251.642 418.519 313.93 333.819 423.556C425.993 348.811 548.061 286.523 670.129 286.523C705.005 286.523 742.373 291.506 774.759 308.947H777.25ZM229.189 1171.01H241.645C286.486 1171.01 331.328 1156.06 371.187 1138.62C518.166 1073.84 637.743 954.247 705.005 809.739C729.917 754.926 769.776 657.758 769.776 600.453C739.882 697.622 695.041 819.705 635.252 901.925C695.041 789.807 754.829 645.3 754.829 515.742C754.829 468.403 744.864 408.607 685.076 408.607C555.534 408.607 381.151 667.724 338.801 777.35C341.292 690.147 505.711 488.335 572.973 426.047C318.872 575.538 229.189 894.451 229.189 1171.01ZM799.67 1479.95C779.741 1549.72 709.988 1636.92 635.252 1651.87C685.076 1651.87 749.847 1589.58 777.25 1552.21C734.9 1621.97 630.27 1721.63 545.57 1721.63C627.779 1721.63 742.373 1629.44 787.214 1564.67C787.214 1567.16 789.706 1572.14 789.706 1572.14C789.706 1582.11 787.214 1584.6 782.232 1592.07C709.988 1694.22 637.743 1754.02 505.711 1754.02C408.554 1754.02 316.38 1704.19 241.645 1644.39C308.907 1711.66 408.554 1761.49 505.711 1761.49C615.323 1761.49 719.952 1706.68 779.741 1614.5C797.179 1587.09 814.617 1557.19 814.617 1524.8C814.617 1509.85 809.635 1492.41 799.67 1479.95ZM779.741 1549.72C779.741 1552.21 779.741 1552.21 777.25 1552.21L779.741 1549.72Z" fill="white"/>
<path d="M1441.01 1123.67H1443.51C1463.43 1123.67 1480.87 1131.14 1480.87 1153.57C1480.87 1163.53 1478.38 1171.01 1475.89 1180.97C1453.47 1263.19 1383.72 1445.07 1281.58 1445.07C1171.97 1445.07 1154.53 1298.07 1154.53 1215.85C1154.53 1161.04 1159.51 1106.23 1164.49 1051.42C1159.51 1063.87 1149.55 1071.35 1142.07 1083.81C1127.12 1103.74 1117.16 1131.14 1107.2 1153.57C1082.28 1208.38 1069.83 1265.69 1049.9 1322.99C1022.5 1332.96 992.601 1337.94 962.707 1337.94C885.48 1337.94 882.989 1260.7 882.989 1203.4C882.989 1121.18 887.971 1041.45 900.427 959.23H915.374C935.304 959.23 1022.5 959.23 1022.5 989.128C1022.5 1053.91 1020 1118.69 1017.51 1183.47C1049.9 1091.28 1109.69 879.502 1231.75 879.502C1236.74 879.502 1244.21 879.502 1249.19 881.993C1129.62 867.044 1059.86 1101.25 1029.97 1188.45C1052.39 1131.14 1134.6 944.281 1194.39 926.84C1204.35 924.349 1214.32 921.857 1224.28 921.857C1251.68 921.857 1323.93 939.298 1323.93 974.179C1323.93 1011.55 1313.96 1046.43 1311.47 1083.81C1304 1166.02 1291.54 1248.24 1291.54 1330.46C1291.54 1337.94 1291.54 1372.82 1304 1372.82C1356.31 1372.82 1426.07 1171.01 1441.01 1123.67ZM1291.54 1400.23C1311.47 1400.23 1338.88 1385.28 1346.35 1367.84C1338.88 1377.8 1321.44 1390.26 1308.98 1390.26C1281.58 1390.26 1281.58 1347.9 1281.58 1327.97C1281.58 1215.85 1294.03 1106.23 1306.49 994.111C1291.54 1116.19 1261.65 1250.74 1276.6 1375.31C1264.14 1372.82 1264.14 1298.07 1264.14 1285.62C1264.14 1203.4 1276.6 1123.67 1286.56 1043.94C1271.61 1133.64 1259.16 1223.33 1259.16 1315.52C1259.16 1340.43 1259.16 1385.28 1289.05 1395.24C1224.28 1395.24 1221.79 1215.85 1229.26 1171.01C1224.28 1198.41 1224.28 1225.82 1224.28 1253.23C1224.28 1298.07 1229.26 1400.23 1291.54 1400.23ZM1012.53 1300.57C1005.06 1253.23 1002.57 1203.4 1002.57 1156.06C1002.57 1103.74 1005.06 1051.42 1007.55 999.094C1007.55 1021.52 1007.55 1043.94 1007.55 1066.36C1007.55 1133.64 1010.04 1198.41 1015.02 1265.69C1012.53 1235.79 1012.53 1205.89 1012.53 1175.99V1083.81L1015.02 1168.52C1015.02 1118.69 1015.02 1068.86 1015.02 1019.03C1015.02 1004.08 1012.53 989.128 997.583 979.162C997.583 1031.48 995.092 1083.81 995.092 1136.13C995.092 1158.55 995.092 1293.09 1012.53 1300.57Z" fill="white"/>
<path d="M1300.32 707.588C1317.76 675.198 1365.09 637.826 1402.46 637.826C1412.42 637.826 1419.9 637.826 1429.86 640.317C1519.54 665.232 1649.09 1021.52 1669.02 1113.7C1693.93 1228.31 1716.35 1380.29 1728.8 1497.4C1706.38 1258.21 1619.19 732.503 1439.83 568.063C1551.93 630.351 1644.1 847.112 1678.98 966.704C1721.33 1116.19 1743.75 1355.38 1756.21 1514.84C1816 1385.28 1873.29 1250.74 1893.22 1108.72C1853.36 1016.53 1848.38 931.823 1848.38 834.655C1848.38 814.722 1850.87 734.994 1860.84 720.045C1870.8 702.605 1890.73 700.113 1908.17 700.113C1977.92 700.113 1997.85 782.333 1997.85 837.146C1997.85 1068.86 1928.1 1340.43 1811.01 1539.75C1900.7 1412.68 2000.34 1118.69 2020.27 964.213C2027.75 901.925 2032.73 837.146 2025.26 774.858C2032.73 814.722 2032.73 857.078 2032.73 899.434C2032.73 971.687 2020.27 1046.43 2000.34 1116.19C2020.27 1131.14 2045.19 1138.62 2070.1 1138.62C2104.97 1138.62 2147.32 1133.64 2177.22 1113.7V1156.06C2157.29 1185.96 2104.97 1203.4 2070.1 1203.4C2040.2 1203.4 2012.8 1198.41 1985.4 1188.45C1930.59 1355.38 1855.85 1547.23 1731.3 1676.78C1728.8 1716.65 1716.35 1739.07 1671.51 1739.07C1644.1 1739.07 1586.81 1724.12 1586.81 1686.75C1586.81 1666.82 1601.75 1639.41 1616.7 1626.95C1551.93 1352.89 1517.05 1058.89 1377.55 809.739C1357.62 772.367 1327.72 739.977 1300.32 707.588ZM1731.3 1564.67C1731.3 1562.17 1733.79 1554.7 1733.79 1552.21C1733.79 1489.92 1656.56 1096.26 1634.14 1033.97C1604.25 954.247 1569.37 874.519 1524.53 799.773C1544.46 842.129 1564.39 881.993 1581.82 924.349C1599.26 966.704 1614.21 1011.55 1631.65 1053.91L1629.16 1051.42L1544.46 854.587C1599.26 1001.59 1624.17 1185.96 1664.03 1340.43L1703.89 1499.89C1686.45 1365.35 1656.56 1205.89 1619.19 1076.33C1659.05 1178.48 1683.96 1342.92 1706.38 1452.55C1713.86 1489.92 1726.31 1527.29 1731.3 1564.67ZM1731.3 1519.82C1731.3 1512.34 1728.8 1504.87 1728.8 1497.4C1728.8 1504.87 1728.8 1512.34 1731.3 1519.82ZM1733.79 1552.21C1733.79 1542.24 1731.3 1529.78 1731.3 1519.82C1731.3 1529.78 1731.3 1542.24 1733.79 1552.21Z" fill="white"/>
<path d="M2736.61 1123.67C2741.59 1131.14 2746.57 1138.62 2746.57 1148.58C2746.57 1200.91 2641.94 1200.91 2607.06 1198.41C2607.06 1370.33 2532.33 1612 2323.07 1612C2290.68 1612 2260.79 1607.02 2230.89 1594.56C2258.3 1602.04 2285.7 1607.02 2313.1 1607.02C2400.3 1607.02 2470.05 1559.68 2514.89 1484.94C2472.54 1542.24 2412.75 1569.65 2343 1569.65C2158.65 1569.65 2113.81 1390.26 2113.81 1240.77C2113.81 1043.94 2191.04 717.554 2440.15 717.554C2452.61 717.554 2467.56 717.554 2480.01 722.537C2470.05 720.045 2462.58 720.045 2452.61 720.045C2235.88 720.045 2143.7 976.67 2131.25 1156.06C2163.63 1014.04 2258.3 759.909 2435.17 759.909C2512.4 759.909 2579.66 812.231 2579.66 894.451C2579.66 906.908 2577.17 941.789 2559.73 941.789C2547.28 941.789 2532.33 941.789 2519.87 939.298C2522.36 931.823 2522.36 924.349 2522.36 916.874C2522.36 881.993 2507.42 819.705 2460.08 819.705C2382.86 819.705 2310.61 1028.99 2293.17 1091.28C2275.74 1151.08 2265.77 1215.85 2265.77 1278.14C2265.77 1345.41 2283.21 1450.06 2347.98 1484.94C2343 1487.43 2335.52 1487.43 2330.54 1487.43C2260.79 1487.43 2230.89 1392.75 2220.93 1337.94C2228.4 1402.72 2250.82 1477.46 2318.09 1502.38C2225.91 1479.95 2208.47 1375.31 2208.47 1295.58C2208.47 1190.94 2230.89 1086.3 2260.79 986.636C2220.93 1076.33 2188.54 1198.41 2188.54 1295.58C2188.54 1385.28 2215.95 1472.48 2305.63 1509.85C2323.07 1517.33 2340.51 1522.31 2357.95 1522.31C2492.47 1522.31 2519.87 1270.67 2519.87 1173.5C2489.98 1153.57 2489.98 1131.14 2489.98 1098.75C2489.98 1053.91 2497.45 994.111 2522.36 956.738C2534.82 949.264 2549.77 946.772 2564.71 946.772C2589.63 946.772 2599.59 959.23 2604.57 981.653C2617.03 1024.01 2612.05 1076.33 2612.05 1118.69C2631.98 1128.65 2651.91 1131.14 2674.33 1131.14C2694.26 1131.14 2716.68 1128.65 2736.61 1123.67ZM2220.93 1320.5C2220.93 1310.53 2220.93 1298.07 2220.93 1288.11C2220.93 1166.02 2255.81 1043.94 2305.63 931.823C2250.82 1026.5 2218.44 1163.53 2218.44 1273.16C2218.44 1288.11 2218.44 1305.55 2220.93 1320.5Z" fill="white"/>
<path d="M3001.31 229.219L3006.3 219.253C3003.8 221.744 3001.31 229.219 3001.31 229.219ZM2996.33 236.693L3001.31 229.219C2998.82 231.71 2998.82 234.202 2996.33 236.693ZM3210.57 944.281C3210.57 1001.59 3093.49 1113.7 3051.14 1151.08C3066.08 1198.41 3138.33 1372.82 3195.63 1372.82C3257.91 1372.82 3287.8 1235.79 3300.26 1188.45C3305.24 1168.52 3312.71 1148.58 3312.71 1128.65C3312.71 1121.18 3320.19 1118.69 3325.17 1118.69C3340.11 1118.69 3362.54 1131.14 3362.54 1148.58C3362.54 1173.5 3355.06 1198.41 3350.08 1223.33C3332.64 1305.55 3290.29 1509.85 3183.17 1509.85C3148.29 1509.85 3103.45 1487.43 3078.54 1462.51C3105.94 1497.4 3148.29 1519.82 3193.13 1519.82C3245.45 1519.82 3292.78 1482.45 3325.17 1445.07C3290.29 1494.9 3242.96 1527.29 3180.68 1527.29C3083.52 1527.29 3013.77 1415.18 2986.37 1332.96C2968.93 1445.07 2953.98 1562.17 2953.98 1674.29C2953.98 1679.27 2956.47 1689.24 2958.96 1694.22C2934.05 1714.16 2894.19 1731.6 2861.81 1731.6C2826.93 1731.6 2811.98 1714.16 2797.04 1686.75C2734.76 1567.16 2717.32 1218.35 2717.32 1076.33C2717.32 782.333 2772.12 149.49 3061.1 4.98295C2944.02 72.2536 2864.3 241.676 2826.93 366.251C2779.6 518.233 2762.16 680.181 2757.18 839.637C2782.09 597.961 2856.82 144.507 3115.91 47.3386C3135.84 39.864 3155.77 37.3726 3175.7 37.3726C3245.45 37.3726 3287.8 87.2026 3287.8 154.473C3287.8 231.71 3247.94 351.302 3218.05 423.556C3242.96 356.285 3277.83 244.168 3277.83 171.914C3277.83 149.49 3270.36 127.067 3260.4 107.135C3262.89 119.592 3262.89 129.558 3262.89 142.016C3262.89 321.404 3006.3 819.705 2914.12 996.602C3018.75 824.688 3105.94 645.3 3198.12 465.912C3100.96 675.198 3001.31 881.993 2886.72 1081.31V1175.99C2886.72 1263.19 2894.19 1350.4 2906.65 1437.6C2914.12 1288.11 3006.3 984.145 3135.84 896.942C3140.82 894.451 3140.82 894.451 3145.8 894.451C3168.22 894.451 3210.57 919.366 3210.57 944.281ZM3140.82 134.541C3165.73 134.541 3178.19 144.507 3178.19 169.422C3175.7 149.49 3160.75 142.016 3143.31 142.016C3073.56 142.016 3018.75 274.066 2998.82 328.879C2934.05 503.284 2904.16 730.011 2896.68 916.874C2961.45 764.892 3188.15 289.015 3188.15 159.456C3188.15 137.033 3173.21 122.084 3150.78 122.084C3118.4 122.084 3081.03 151.982 3058.61 171.914C2961.45 259.117 2911.63 485.844 2884.23 610.419C2901.67 485.844 2931.56 358.777 2991.35 246.659L2956.47 306.455C2861.81 470.895 2831.91 862.061 2831.91 1056.4C2831.91 1138.62 2834.4 1218.35 2841.88 1300.57C2839.39 1248.24 2836.9 1198.41 2836.9 1146.09C2836.9 991.619 2856.82 842.129 2874.26 690.147C2866.79 829.671 2846.86 966.704 2846.86 1106.23C2854.33 884.485 2901.67 368.743 3043.66 201.812C3066.08 174.405 3100.96 134.541 3140.82 134.541ZM2996.33 1228.31C3013.77 1322.99 3041.17 1417.67 3120.89 1477.46C3036.19 1427.63 3018.75 1355.38 2991.35 1268.18C2993.84 1355.38 3076.05 1499.89 3173.21 1499.89C3205.59 1499.89 3237.98 1479.95 3250.43 1450.06C3232.99 1469.99 3205.59 1484.94 3178.19 1484.94C3076.05 1484.94 3013.77 1310.53 2996.33 1228.31ZM3071.07 0L3068.58 2.49147C3068.58 0 3068.58 0 3071.07 0ZM3068.58 2.49147L3061.1 4.98295C3063.59 2.49147 3066.08 2.49147 3068.58 2.49147ZM3175.7 186.863L3178.19 181.88C3178.19 184.371 3178.19 184.371 3175.7 186.863ZM2844.37 1313.02C2844.37 1308.04 2844.37 1305.55 2841.88 1300.57C2841.88 1305.55 2841.88 1308.04 2844.37 1313.02ZM2849.35 1357.87C2849.35 1462.51 2866.79 1569.65 2901.67 1666.82C2879.25 1639.41 2859.32 1539.75 2851.84 1502.38C2851.84 1554.7 2874.26 1666.82 2921.6 1694.22C2886.72 1636.92 2856.82 1432.62 2849.35 1357.87Z" fill="white"/>
<path d="M3714.55 1128.65H3719.53C3734.48 1128.65 3756.9 1133.64 3756.9 1153.57C3756.9 1158.55 3754.41 1163.53 3754.41 1168.52C3729.5 1288.11 3619.89 1482.45 3480.38 1482.45C3428.07 1482.45 3383.22 1447.56 3355.82 1407.7C3380.73 1465.01 3435.54 1497.4 3497.82 1497.4C3532.7 1497.4 3562.59 1479.95 3594.97 1467.5C3565.08 1487.43 3522.73 1504.87 3485.36 1504.87C3333.4 1504.87 3296.03 1362.85 3296.03 1238.28C3296.03 1088.79 3393.19 834.655 3572.55 834.655C3587.5 834.655 3604.94 837.146 3619.89 842.129C3607.43 837.146 3594.97 837.146 3582.52 837.146C3477.89 837.146 3400.66 921.857 3360.8 1011.55C3405.64 944.281 3462.94 869.536 3552.62 869.536C3492.84 879.502 3447.99 904.417 3410.63 951.755C3445.5 914.383 3495.33 884.485 3550.13 884.485C3614.9 884.485 3664.73 916.874 3664.73 986.636C3664.73 1081.31 3572.55 1195.92 3472.91 1195.92C3460.45 1195.92 3447.99 1193.43 3438.03 1188.45C3433.05 1210.87 3433.05 1235.79 3433.05 1258.21C3433.05 1280.63 3435.54 1303.06 3438.03 1325.48C3428.07 1298.07 3428.07 1268.18 3428.07 1238.28C3428.07 1173.5 3447.99 1071.35 3480.38 1016.53C3428.07 1048.92 3408.14 1198.41 3408.14 1258.21C3408.14 1290.6 3415.61 1370.33 3452.98 1382.79C3425.57 1355.38 3418.1 1293.09 3418.1 1255.72C3418.1 1205.89 3423.08 1151.08 3440.52 1103.74C3430.56 1146.09 3425.57 1188.45 3425.57 1233.3C3425.57 1285.62 3430.56 1395.24 3502.8 1395.24C3597.47 1395.24 3702.1 1210.87 3714.55 1128.65ZM3428.07 1024.01C3403.15 1086.3 3378.24 1151.08 3378.24 1220.84C3378.24 1255.72 3383.22 1295.58 3393.19 1327.97C3388.21 1290.6 3385.72 1253.23 3385.72 1215.85C3385.72 1131.14 3438.03 951.755 3542.66 951.755C3517.75 971.687 3460.45 1061.38 3460.45 1093.77V1091.28C3452.98 1108.72 3450.49 1128.65 3445.5 1148.58C3447.99 1151.08 3452.98 1151.08 3455.47 1151.08C3502.8 1151.08 3580.03 1024.01 3580.03 979.162C3580.03 951.755 3560.1 941.789 3535.19 941.789C3505.29 941.789 3477.89 959.23 3457.96 979.162C3393.19 1041.45 3370.77 1131.14 3370.77 1218.35C3370.77 1240.77 3370.77 1265.69 3375.75 1285.62C3373.26 1268.18 3373.26 1250.74 3373.26 1235.79C3373.26 1163.53 3390.7 1083.81 3428.07 1024.01ZM3477.89 1188.45C3577.54 1168.52 3652.27 1091.28 3652.27 986.636C3652.27 961.721 3642.31 916.874 3614.9 909.4C3634.83 929.332 3644.8 966.704 3644.8 994.111C3644.8 1076.33 3587.5 1143.6 3515.26 1175.99C3502.8 1180.97 3490.34 1183.47 3477.89 1188.45Z" fill="white"/>
<path d="M1327.9 1665.56C1339.36 1658.87 1348.2 1653.86 1354.41 1650.51C1360.62 1647.17 1367.79 1642.63 1375.91 1636.89C1397.88 1621.61 1415.8 1608.23 1429.65 1596.76C1421.53 1592.46 1415.8 1586.73 1412.45 1579.56C1409.59 1571.92 1408.15 1563.79 1408.15 1555.19C1408.15 1547.55 1410.06 1540.86 1413.89 1535.13C1417.71 1528.92 1422.01 1523.66 1426.78 1519.36C1432.04 1514.1 1438.01 1509.57 1444.7 1505.74C1450.91 1506.7 1456.64 1508.13 1461.9 1510.04C1466.2 1511.95 1470.26 1514.58 1474.08 1517.93C1478.38 1520.79 1481.01 1524.62 1481.96 1529.39L1480.53 1530.83C1480.05 1531.3 1479.33 1531.78 1478.38 1532.26C1477.9 1532.74 1477.18 1533.45 1476.23 1534.41C1470.97 1538.71 1465.96 1543.97 1461.18 1550.18C1458.79 1553.52 1456.88 1556.87 1455.45 1560.21C1454.49 1563.55 1454.49 1566.9 1455.45 1570.24C1455.45 1571.2 1455.69 1571.92 1456.16 1572.39C1458.55 1580.52 1463.57 1584.1 1471.21 1583.14C1474.56 1582.67 1477.9 1581.95 1481.24 1580.99C1484.59 1579.56 1488.17 1578.37 1491.99 1577.41C1512.53 1570.72 1529.02 1568.33 1541.44 1570.24C1545.26 1571.2 1549.32 1572.63 1553.62 1574.54C1558.4 1575.98 1562.46 1578.6 1565.8 1582.43C1572.49 1589.12 1573.68 1597.72 1569.38 1608.23C1565.56 1618.74 1559.11 1629.97 1550.04 1641.91C1540.96 1653.38 1530.69 1665.08 1519.22 1677.03C1507.76 1688.49 1497.73 1699.01 1489.13 1708.56C1481.01 1718.12 1475.75 1726.24 1473.36 1732.93C1471.45 1739.14 1475.27 1742.48 1484.83 1742.96C1493.9 1743.92 1504.17 1742.96 1515.64 1740.1C1527.58 1737.23 1539.76 1733.41 1552.19 1728.63C1565.08 1723.37 1578.22 1717.64 1591.6 1711.43C1604.97 1704.74 1617.87 1697.81 1630.29 1690.64C1659.91 1674.4 1690.25 1655.53 1721.3 1634.03H1747.1C1711.27 1660.31 1675.92 1683 1641.04 1702.11C1626.23 1710.23 1610.71 1718.12 1594.46 1725.76C1578.7 1733.41 1562.93 1740.1 1547.17 1745.83C1531.4 1751.56 1515.88 1755.86 1500.59 1758.73C1485.78 1761.6 1472.17 1762.31 1459.75 1760.88C1444.46 1759.45 1434.67 1755.38 1430.37 1748.7C1426.07 1741.53 1425.11 1733.17 1427.5 1723.61C1429.89 1713.58 1434.67 1703.07 1441.83 1692.08C1449.48 1681.09 1457.36 1670.58 1465.48 1660.54C1473.6 1650.03 1481.24 1640.72 1488.41 1632.59C1495.58 1624.47 1500.11 1618.5 1502.02 1614.68C1502.98 1613.24 1503.94 1611.57 1504.89 1609.66C1505.85 1606.32 1505.61 1604.17 1504.17 1603.21C1503.22 1601.78 1501.55 1600.82 1499.16 1600.34C1496.77 1599.87 1493.9 1600.11 1490.56 1601.06C1480.53 1602.97 1472.88 1604.17 1467.63 1604.64C1462.37 1604.64 1458.55 1604.41 1456.16 1603.93C1455.69 1603.93 1455.21 1603.93 1454.73 1603.93C1454.73 1603.45 1454.49 1603.21 1454.01 1603.21C1450.67 1606.08 1447.8 1608.71 1445.42 1611.09C1443.03 1613.48 1440.64 1615.63 1438.25 1617.54C1435.86 1619.46 1433.47 1621.13 1431.08 1622.56C1428.69 1624.47 1425.83 1626.38 1422.48 1628.29C1419.62 1629.73 1416.51 1631.64 1413.17 1634.03C1405.05 1639.28 1396.69 1644.54 1388.09 1649.79C1379.49 1654.57 1371.85 1658.87 1365.16 1662.69C1357.04 1667.47 1349.15 1671.77 1341.51 1675.59L1327.9 1665.56ZM1454.01 1687.78C1454.49 1687.3 1454.73 1686.34 1454.73 1684.91V1684.19C1453.78 1683.24 1452.82 1683.96 1451.86 1686.34C1450.91 1687.3 1450.19 1688.26 1449.71 1689.21C1447.8 1692.08 1446.61 1694.23 1446.13 1695.66C1446.13 1695.66 1445.65 1696.14 1444.7 1697.09C1444.22 1697.57 1443.98 1698.29 1443.98 1699.24C1443.98 1699.72 1443.74 1700.44 1443.27 1701.39C1443.27 1701.87 1443.5 1702.11 1443.98 1702.11C1443.98 1702.11 1444.22 1701.63 1444.7 1700.68L1446.13 1699.24C1446.61 1698.77 1446.85 1698.29 1446.85 1697.81C1446.85 1698.29 1446.85 1698.53 1446.85 1698.53C1447.33 1698.53 1447.56 1698.29 1447.56 1697.81H1448.28C1448.76 1697.33 1449 1696.86 1449 1696.38C1449.95 1695.9 1450.67 1695.66 1451.15 1695.66C1452.1 1695.66 1452.82 1695.18 1453.3 1694.23C1453.78 1693.75 1453.54 1692.79 1452.58 1691.36C1453.06 1690.41 1453.3 1689.93 1453.3 1689.93C1453.3 1689.45 1453.54 1688.73 1454.01 1687.78ZM1487.69 1650.51C1487.69 1650.03 1486.98 1649.08 1485.54 1647.64H1482.68C1481.24 1648.12 1480.05 1649.32 1479.09 1651.23C1478.14 1652.66 1477.18 1654.57 1476.23 1656.96C1475.75 1656.96 1475.27 1657.2 1474.79 1657.68C1473.84 1658.63 1473.12 1659.35 1472.64 1659.83C1472.64 1660.31 1472.17 1661.02 1471.21 1661.98C1470.26 1662.93 1469.54 1663.89 1469.06 1664.84C1469.06 1665.8 1468.82 1666.52 1468.35 1666.99C1466.91 1668.43 1466.2 1669.86 1466.2 1671.29C1466.2 1671.29 1466.43 1671.53 1466.91 1672.01C1467.39 1672.01 1467.87 1671.77 1468.35 1671.29C1468.82 1670.34 1469.3 1669.62 1469.78 1669.14C1470.26 1669.14 1470.97 1668.43 1471.93 1666.99L1475.51 1663.41C1475.99 1662.93 1476.23 1662.69 1476.23 1662.69C1476.71 1662.69 1477.18 1662.46 1477.66 1661.98C1478.14 1661.98 1478.38 1661.74 1478.38 1661.26H1479.09C1480.05 1660.78 1480.77 1660.07 1481.24 1659.11C1481.72 1658.16 1482.68 1656.96 1484.11 1655.53C1486.02 1654.09 1487.22 1652.42 1487.69 1650.51ZM1506.32 1629.01C1506.8 1627.58 1506.32 1626.86 1504.89 1626.86H1502.74C1500.35 1627.34 1498.92 1628.06 1498.44 1629.01C1497.96 1629.97 1497.49 1630.92 1497.01 1631.88C1496.05 1633.31 1495.1 1634.51 1494.14 1635.46C1493.19 1635.94 1492.23 1637.13 1491.28 1639.04C1489.84 1640.48 1489.13 1641.43 1489.13 1641.91C1489.13 1642.39 1489.37 1643.34 1489.84 1644.78C1490.8 1646.21 1491.28 1646.45 1491.28 1645.49C1491.75 1644.06 1492.71 1642.87 1494.14 1641.91C1496.05 1640.96 1497.25 1640 1497.73 1639.04C1498.68 1637.61 1500.11 1635.94 1502.02 1634.03C1503.94 1632.12 1504.89 1631.16 1504.89 1631.16C1504.89 1630.68 1505.37 1629.97 1506.32 1629.01ZM1418.9 1542.29C1419.38 1541.34 1419.38 1540.86 1418.9 1540.86C1418.9 1540.38 1419.14 1539.9 1419.62 1539.43V1536.56H1418.18L1417.47 1537.28C1416.51 1538.23 1416.04 1538.95 1416.04 1539.43C1416.04 1540.38 1415.8 1540.86 1415.32 1540.86C1415.32 1541.82 1415.08 1542.53 1414.6 1543.01L1413.17 1544.44V1547.31C1413.17 1547.31 1412.93 1547.79 1412.45 1548.74V1550.18C1412.45 1551.13 1412.21 1551.85 1411.74 1552.33C1411.74 1552.8 1411.5 1553.28 1411.02 1553.76C1411.02 1553.76 1411.02 1554 1411.02 1554.48V1558.78C1411.02 1560.21 1411.26 1560.93 1411.74 1560.93C1411.74 1561.88 1411.97 1562.6 1412.45 1563.08L1414.6 1567.38V1568.81C1414.6 1569.29 1414.84 1569.77 1415.32 1570.24V1573.11C1415.8 1573.11 1416.04 1573.35 1416.04 1573.83V1574.54C1416.51 1574.54 1416.75 1574.78 1416.75 1575.26C1416.75 1576.22 1417.23 1576.69 1418.18 1576.69C1419.14 1577.17 1419.38 1577.17 1418.9 1576.69C1418.42 1575.74 1418.18 1574.54 1418.18 1573.11C1418.18 1572.15 1417.95 1571.44 1417.47 1570.96C1417.47 1570.48 1417.23 1569.77 1416.75 1568.81C1416.75 1567.85 1416.51 1567.14 1416.04 1566.66V1563.08C1416.04 1562.6 1415.8 1561.88 1415.32 1560.93C1415.32 1559.97 1415.32 1558.78 1415.32 1557.34C1415.32 1554 1415.56 1551.85 1416.04 1550.89C1416.51 1550.42 1416.75 1549.46 1416.75 1548.03C1417.23 1547.55 1417.47 1546.83 1417.47 1545.88C1417.95 1544.92 1418.18 1544.2 1418.18 1543.73C1418.18 1543.25 1418.42 1542.77 1418.9 1542.29ZM1428.93 1525.09C1428.93 1525.09 1429.89 1524.14 1431.8 1522.23C1435.62 1518.4 1437.05 1516.73 1436.1 1517.21C1435.14 1518.17 1433.95 1519.12 1432.52 1520.08C1431.08 1521.03 1429.89 1521.99 1428.93 1522.94C1426.07 1525.33 1423.92 1527.48 1422.48 1529.39C1420.57 1531.3 1419.86 1532.26 1420.33 1532.26V1534.41C1420.33 1535.37 1420.81 1535.37 1421.77 1534.41C1422.25 1533.93 1422.72 1533.22 1423.2 1532.26C1424.16 1531.3 1425.11 1530.35 1426.07 1529.39C1427.98 1527 1428.93 1525.57 1428.93 1525.09Z" fill="#C2CF43"/>
<path d="M1659.28 1742.25C1635.87 1742.72 1621.3 1737.71 1615.57 1727.2C1609.36 1716.21 1612.23 1703.78 1624.17 1689.93C1627.99 1685.15 1635.16 1678.7 1645.67 1670.58C1656.18 1661.98 1668.84 1652.66 1683.64 1642.63C1697.98 1632.12 1713.5 1621.61 1730.22 1611.09C1747.42 1600.11 1764.62 1590.07 1781.82 1580.99C1799.01 1571.44 1815.73 1563.32 1831.98 1556.63C1848.22 1549.94 1862.55 1545.4 1874.97 1543.01C1886.91 1541.58 1897.9 1541.82 1907.93 1543.73C1916.53 1546.12 1924.65 1550.42 1932.3 1556.63C1940.42 1562.84 1946.15 1573.11 1949.5 1587.44C1949.5 1588.4 1949.26 1589.12 1948.78 1589.59C1948.3 1589.59 1947.59 1589.12 1946.63 1588.16C1944.72 1585.29 1941.85 1582.19 1938.03 1578.84C1934.69 1575.5 1930.39 1572.87 1925.13 1570.96C1919.88 1568.57 1913.91 1567.38 1907.22 1567.38C1900.53 1566.9 1893.13 1568.57 1885 1572.39C1877.84 1575.74 1867.81 1580.99 1854.91 1588.16C1842.01 1594.85 1828.16 1602.73 1813.35 1611.81C1798.54 1620.89 1783.25 1630.44 1767.48 1640.48C1752.2 1650.51 1738.34 1660.31 1725.92 1669.86C1713.5 1679.42 1703.47 1688.26 1695.83 1696.38C1687.71 1704.5 1683.88 1710.95 1684.36 1715.73C1686.27 1715.25 1689.86 1713.82 1695.11 1711.43C1699.41 1709.04 1705.62 1705.69 1713.74 1701.39C1721.38 1697.09 1731.66 1690.88 1744.55 1682.76C1757.45 1674.64 1771.55 1665.32 1786.83 1654.81C1802.6 1644.3 1817.41 1634.51 1831.26 1625.43C1845.59 1615.87 1858.25 1607.75 1869.24 1601.06C1880.7 1594.37 1888.59 1590.55 1892.89 1589.59C1905.31 1587.68 1915.34 1589.36 1922.98 1594.61C1920.59 1598.43 1918.21 1602.97 1915.82 1608.23C1913.91 1611.09 1912.47 1614.2 1911.52 1617.54C1910.56 1620.41 1909.61 1623.04 1908.65 1625.43C1907.7 1626.86 1907.22 1628.06 1907.22 1629.01C1907.22 1629.49 1906.98 1630.21 1906.5 1631.16V1634.03C1906.5 1634.98 1906.74 1636.18 1907.22 1637.61C1907.22 1640 1907.93 1639.76 1909.37 1636.89C1909.85 1636.42 1910.08 1635.7 1910.08 1634.74C1910.56 1633.79 1911.28 1632.83 1912.23 1631.88C1912.71 1630.44 1913.19 1629.01 1913.67 1627.58C1914.14 1626.14 1914.62 1624.47 1915.1 1622.56C1916.53 1618.74 1917.25 1616.35 1917.25 1615.39C1917.73 1614.44 1918.21 1613.48 1918.68 1612.53C1918.68 1611.57 1918.68 1610.62 1918.68 1609.66C1919.16 1608.71 1920.12 1606.79 1921.55 1603.93C1922.03 1602.49 1922.5 1601.06 1922.98 1599.63C1923.46 1598.19 1923.94 1597 1924.42 1596.04C1929.19 1599.87 1932.06 1604.64 1933.01 1610.38C1933.97 1616.11 1933.25 1621.61 1930.87 1626.86C1928.48 1631.64 1925.61 1639.76 1922.27 1651.23C1919.4 1662.22 1917.49 1673.68 1916.53 1685.63C1916.06 1697.09 1917.73 1707.37 1921.55 1716.45C1925.37 1725.05 1933.01 1729.11 1944.48 1728.63C1953.56 1728.63 1964.31 1726.72 1976.73 1722.9C1989.15 1718.6 2002.28 1713.58 2016.14 1707.85C2029.99 1701.63 2043.85 1694.94 2057.7 1687.78C2071.55 1680.61 2084.69 1673.68 2097.11 1666.99C2109.53 1659.83 2120.76 1653.38 2130.79 1647.64C2140.82 1641.43 2148.71 1636.66 2154.44 1633.31H2178.8C2144.88 1656.24 2112.64 1676.31 2082.06 1693.51C2068.69 1701.16 2055.07 1708.56 2041.22 1715.73C2027.36 1722.42 2013.75 1728.63 2000.37 1734.36C1987.47 1739.62 1975.05 1743.68 1963.11 1746.55C1951.65 1749.41 1941.61 1750.61 1933.01 1750.13C1919.64 1749.17 1907.46 1746.55 1896.47 1742.25C1886.91 1738.42 1878.08 1732.69 1869.96 1725.05C1861.83 1717.4 1857.3 1706.17 1856.34 1691.36C1855.39 1681.81 1855.62 1672.73 1857.06 1664.13C1858.49 1655.05 1859.92 1647.17 1861.36 1640.48C1863.27 1632.83 1865.42 1625.91 1867.81 1619.69C1833.89 1642.63 1802.6 1663.17 1773.93 1681.33C1761.51 1688.97 1749.09 1696.62 1736.67 1704.26C1724.73 1711.43 1713.74 1717.88 1703.71 1723.61C1693.2 1729.35 1684.12 1733.88 1676.48 1737.23C1668.36 1740.57 1662.62 1742.25 1659.28 1742.25ZM1893.6 1685.63C1893.6 1688.02 1893.36 1689.69 1892.89 1690.64C1892.89 1691.6 1893.13 1693.27 1893.6 1695.66C1893.6 1697.09 1894.08 1698.77 1895.04 1700.68C1895.04 1701.16 1895.51 1702.35 1896.47 1704.26C1897.42 1706.17 1898.14 1708.08 1898.62 1710C1899.1 1711.43 1899.81 1713.1 1900.77 1715.01C1901.25 1715.49 1901.49 1715.97 1901.49 1716.45C1901.49 1716.92 1901.72 1717.4 1902.2 1717.88C1902.2 1718.83 1902.2 1719.55 1902.2 1720.03C1902.68 1720.03 1902.92 1720.51 1902.92 1721.46C1903.87 1724.33 1904.83 1726.24 1905.78 1727.2L1909.37 1730.78C1909.85 1731.26 1910.8 1731.5 1912.23 1731.5C1912.23 1731.97 1912.71 1732.21 1913.67 1732.21H1914.38C1915.34 1731.73 1915.58 1731.02 1915.1 1730.06C1914.62 1730.06 1913.91 1729.58 1912.95 1728.63C1912.95 1728.63 1912.47 1728.15 1911.52 1727.2C1911.52 1726.72 1911.28 1726.24 1910.8 1725.76C1910.8 1725.28 1910.56 1724.81 1910.08 1724.33C1910.08 1723.85 1909.85 1723.37 1909.37 1722.9V1722.18L1908.65 1721.46C1907.7 1720.51 1906.98 1719.31 1906.5 1717.88C1905.55 1715.01 1905.07 1713.34 1905.07 1712.86C1904.59 1711.91 1904.11 1710.95 1903.64 1710C1903.64 1709.04 1903.64 1707.85 1903.64 1706.41C1903.64 1704.5 1903.4 1702.35 1902.92 1699.96C1902.92 1697.57 1902.92 1695.18 1902.92 1692.79C1902.92 1689.93 1902.92 1687.3 1902.92 1684.91C1902.92 1682.04 1903.4 1679.42 1904.35 1677.03C1904.83 1674.64 1905.07 1672.49 1905.07 1670.58C1905.55 1668.67 1905.78 1666.76 1905.78 1664.84C1905.78 1660.54 1906.26 1657.68 1907.22 1656.24C1908.17 1654.33 1908.17 1653.14 1907.22 1652.66C1906.74 1651.71 1906.74 1650.51 1907.22 1649.08C1907.22 1647.17 1906.98 1645.49 1906.5 1644.06C1906.02 1643.11 1905.07 1643.11 1903.64 1644.06L1902.2 1645.49C1901.25 1647.41 1900.77 1649.32 1900.77 1651.23C1900.77 1653.14 1900.77 1654.57 1900.77 1655.53C1900.29 1656.48 1899.57 1657.92 1898.62 1659.83C1897.66 1661.74 1896.95 1663.17 1896.47 1664.13C1896.47 1665.08 1896.47 1666.76 1896.47 1669.14C1896.95 1671.53 1896.95 1673.92 1896.47 1676.31C1896.47 1678.7 1895.99 1680.37 1895.04 1681.33C1894.56 1682.28 1894.08 1683.72 1893.6 1685.63ZM1756.74 1606.08C1755.78 1607.51 1756.5 1608.23 1758.89 1608.23C1759.84 1608.23 1760.8 1607.99 1761.75 1607.51C1764.14 1606.56 1766.05 1605.6 1767.48 1604.64C1769.4 1603.21 1770.83 1602.02 1771.78 1601.06C1772.74 1600.11 1774.41 1599.63 1776.8 1599.63C1779.67 1599.15 1781.58 1598.43 1782.53 1597.48C1783.49 1597 1784.2 1596.52 1784.68 1596.04C1785.64 1595.57 1786.83 1594.85 1788.27 1593.89C1789.7 1592.46 1791.85 1590.79 1794.71 1588.88C1797.1 1587.44 1799.01 1586.73 1800.45 1586.73C1802.36 1586.25 1804.51 1585.53 1806.9 1584.58C1810.24 1583.62 1813.82 1581.95 1817.65 1579.56C1820.03 1578.13 1821.47 1576.93 1821.94 1575.98C1822.9 1575.02 1824.09 1573.83 1825.53 1572.39C1829.35 1569.05 1833.41 1566.42 1837.71 1564.51C1840.1 1563.08 1842.73 1562.12 1845.59 1561.64C1848.46 1560.69 1850.85 1559.73 1852.76 1558.78C1855.15 1557.82 1857.3 1557.1 1859.21 1556.63C1861.6 1555.67 1863.51 1554.24 1864.94 1552.33C1865.9 1550.89 1865.42 1550.65 1863.51 1551.61C1861.6 1552.09 1858.73 1552.57 1854.91 1553.04C1851.09 1554 1848.7 1554.72 1847.74 1555.19C1846.79 1555.67 1844.88 1556.39 1842.01 1557.34C1839.14 1558.78 1836.75 1560.21 1834.84 1561.64C1832.93 1562.6 1830.07 1563.79 1826.24 1565.23C1825.29 1565.7 1824.09 1566.18 1822.66 1566.66C1821.23 1566.66 1820.03 1567.14 1819.08 1568.09C1817.65 1569.05 1815.97 1570 1814.06 1570.96C1812.63 1571.44 1811.2 1572.15 1809.76 1573.11C1807.85 1574.07 1805.94 1575.02 1804.03 1575.98C1802.6 1576.45 1801.16 1577.17 1799.73 1578.13C1798.3 1579.08 1796.63 1579.8 1794.71 1580.28C1793.28 1580.75 1792.09 1581.47 1791.13 1582.43C1789.22 1582.9 1786.83 1584.1 1783.97 1586.01C1782.53 1586.97 1781.34 1587.68 1780.38 1588.16C1779.43 1588.64 1778.47 1589.12 1777.52 1589.59C1775.61 1591.03 1773.7 1592.22 1771.78 1593.18C1770.35 1594.13 1769.16 1595.09 1768.2 1596.04C1765.33 1597 1763.66 1597.96 1763.19 1598.91C1763.19 1599.87 1762.47 1600.82 1761.04 1601.78C1759.12 1603.21 1757.69 1604.64 1756.74 1606.08ZM1697.98 1644.78C1696.54 1645.73 1695.83 1646.45 1695.83 1646.93C1695.35 1647.41 1695.59 1647.41 1696.54 1646.93C1702.75 1642.15 1710.16 1637.37 1718.76 1632.59C1720.67 1631.64 1722.34 1630.68 1723.77 1629.73C1725.68 1628.77 1727.59 1627.82 1729.51 1626.86C1730.46 1625.91 1731.18 1625.43 1731.66 1625.43C1732.61 1624.95 1733.57 1624.47 1734.52 1623.99C1735.48 1623.04 1736.91 1622.08 1738.82 1621.13C1741.69 1619.22 1743.84 1617.78 1745.27 1616.83C1746.23 1616.35 1747.18 1615.63 1748.14 1614.68C1748.61 1614.2 1748.85 1613.72 1748.85 1613.24C1749.33 1612.77 1750.05 1612.05 1751 1611.09C1751.96 1609.66 1751 1609.18 1748.14 1609.66L1740.97 1613.24C1737.63 1615.16 1734.28 1617.31 1730.94 1619.69C1728.55 1620.65 1726.64 1621.61 1725.21 1622.56C1724.25 1623.52 1723.3 1624.23 1722.34 1624.71C1720.91 1626.14 1719.95 1626.86 1719.47 1626.86L1717.32 1629.01C1716.85 1629.49 1714.7 1631.16 1710.87 1634.03C1704.19 1638.33 1699.89 1641.91 1697.98 1644.78Z" fill="#C2CF43"/>
<path d="M2116.51 1760.88C2097.88 1758.97 2087.13 1753.23 2084.26 1743.68C2081.4 1734.12 2083.07 1723.13 2089.28 1710.71C2095.49 1697.81 2104.33 1684.91 2115.79 1672.01C2126.78 1658.63 2137.05 1647.17 2146.61 1637.61C2148.52 1635.7 2154.01 1633.31 2163.09 1630.44C2171.69 1627.1 2180.52 1624.47 2189.6 1622.56C2199.16 1620.17 2207.28 1619.22 2213.97 1619.69C2220.65 1620.17 2223.04 1622.8 2221.13 1627.58C2211.58 1639.52 2200.11 1652.18 2186.73 1665.56C2173.84 1678.46 2162.37 1690.64 2152.34 1702.11C2142.31 1713.1 2135.62 1722.66 2132.27 1730.78C2128.45 1738.42 2131.56 1742.48 2141.59 1742.96C2150.67 1743.92 2160.94 1742.96 2172.4 1740.1C2184.35 1737.23 2196.53 1733.41 2208.95 1728.63C2221.85 1723.37 2234.98 1717.64 2248.36 1711.43C2261.74 1704.74 2274.64 1697.81 2287.06 1690.64C2316.68 1674.4 2347.01 1655.53 2378.06 1634.03H2404.58C2368.75 1660.31 2333.4 1683 2298.52 1702.11C2283.71 1710.23 2268.19 1718.12 2251.94 1725.76C2235.7 1733.41 2219.7 1740.1 2203.93 1745.83C2188.17 1751.56 2172.88 1755.86 2158.07 1758.73C2142.78 1761.6 2128.93 1762.31 2116.51 1760.88ZM2188.88 1649.79C2187.45 1651.71 2186.73 1652.9 2186.73 1653.38C2186.73 1653.86 2186.73 1654.57 2186.73 1655.53C2186.73 1656.48 2186.97 1656.48 2187.45 1655.53C2188.41 1654.57 2189.6 1653.62 2191.03 1652.66C2192.47 1651.71 2193.66 1650.75 2194.62 1649.79C2195.57 1648.36 2197.24 1646.69 2199.63 1644.78C2202.02 1642.87 2203.22 1641.67 2203.22 1641.19C2203.22 1640.72 2203.69 1640 2204.65 1639.04C2205.6 1638.09 2205.37 1637.61 2203.93 1637.61H2201.78C2199.87 1638.57 2198.68 1639.52 2198.2 1640.48C2197.72 1641.43 2197.01 1642.39 2196.05 1643.34C2195.1 1644.3 2194.14 1645.26 2193.18 1646.21C2192.23 1647.17 2190.8 1648.36 2188.88 1649.79ZM2159.5 1682.04C2159.5 1682.52 2159.74 1682.76 2160.22 1682.76C2160.22 1682.28 2160.22 1682.28 2160.22 1682.76C2160.7 1682.76 2161.18 1682.52 2161.65 1682.04C2162.13 1681.09 2162.61 1680.37 2163.09 1679.89C2163.57 1679.89 2164.52 1679.18 2165.95 1677.74L2167.39 1676.31C2167.87 1675.83 2168.1 1675.36 2168.1 1674.88C2168.58 1674.4 2169.3 1673.92 2170.25 1673.44L2172.4 1672.01H2173.12C2174.08 1671.06 2174.79 1670.1 2175.27 1669.14C2176.23 1668.19 2177.42 1666.99 2178.85 1665.56C2180.29 1664.61 2181 1663.89 2181 1663.41C2181.48 1662.46 2182.2 1661.5 2183.15 1660.54C2184.11 1659.59 2183.63 1659.11 2181.72 1659.11H2179.57C2178.61 1659.59 2177.42 1660.78 2175.99 1662.69C2174.55 1664.13 2173.12 1665.8 2171.69 1667.71C2171.69 1668.19 2171.45 1668.43 2170.97 1668.43C2170.97 1668.43 2170.97 1668.67 2170.97 1669.14C2170.01 1670.1 2169.3 1670.82 2168.82 1671.29C2168.34 1671.77 2167.63 1672.49 2166.67 1673.44C2165.72 1674.4 2165 1675.36 2164.52 1676.31C2163.57 1676.79 2162.85 1677.27 2162.37 1677.74C2161.42 1678.7 2160.46 1680.13 2159.5 1682.04ZM2134.42 1712.86C2133.95 1713.34 2133.95 1713.58 2134.42 1713.58L2135.86 1712.15C2135.86 1709.76 2136.57 1708.56 2138.01 1708.56C2137.53 1709.52 2138.25 1709.04 2140.16 1707.13C2140.63 1706.17 2141.11 1705.69 2141.59 1705.69C2142.07 1705.69 2142.78 1705.22 2143.74 1704.26C2144.22 1703.78 2144.22 1703.07 2143.74 1702.11C2144.7 1700.2 2145.41 1699.01 2145.89 1698.53C2146.85 1697.57 2147.32 1696.62 2147.32 1695.66V1694.94C2146.37 1693.99 2145.41 1694.71 2144.46 1697.09C2143.98 1697.57 2143.74 1698.05 2143.74 1698.53C2143.26 1699.01 2142.78 1699.48 2142.31 1699.96C2141.35 1700.92 2140.63 1702.11 2140.16 1703.55C2139.2 1704.5 2138.25 1705.46 2137.29 1706.41C2137.29 1706.89 2137.05 1707.37 2136.57 1707.85C2135.62 1708.8 2135.14 1709.76 2135.14 1710.71C2134.66 1711.19 2134.42 1711.67 2134.42 1712.15V1712.86ZM2187.45 1601.06C2183.63 1600.11 2183.39 1596.52 2186.73 1590.31C2190.56 1584.1 2195.33 1577.17 2201.07 1569.53C2206.8 1561.88 2212.05 1554.24 2216.83 1546.59C2222.09 1538.47 2224 1532.02 2222.56 1527.24C2222.56 1526.77 2222.8 1526.05 2223.28 1525.09C2224.24 1523.18 2227.1 1520.79 2231.88 1517.93C2235.7 1515.54 2242.39 1512.67 2251.94 1509.33C2261.98 1505.5 2271.05 1503.35 2279.17 1502.88C2287.77 1501.92 2293.51 1503.83 2296.37 1508.61C2299.72 1513.39 2296.85 1523.18 2287.77 1537.99C2281.08 1548.5 2272.96 1558.3 2263.41 1567.38C2254.33 1576.45 2244.78 1587.2 2234.75 1599.63C2227.1 1600.11 2220.18 1600.58 2213.97 1601.06C2208.71 1601.54 2203.46 1602.02 2198.2 1602.49C2193.42 1602.49 2189.84 1602.02 2187.45 1601.06ZM2261.26 1555.19C2259.83 1557.1 2259.11 1558.06 2259.11 1558.06C2259.11 1558.06 2259.11 1558.78 2259.11 1560.21C2259.11 1562.6 2261.26 1561.17 2265.56 1555.91C2267.95 1553.52 2268.9 1552.57 2268.43 1553.04C2267.95 1553.04 2268.66 1551.85 2270.58 1549.46C2272.49 1547.07 2273.68 1545.4 2274.16 1544.44C2274.64 1543.49 2274.64 1543.25 2274.16 1543.73C2271.77 1545.64 2269.38 1547.55 2266.99 1549.46C2264.6 1551.37 2262.69 1553.28 2261.26 1555.19ZM2234.03 1588.88C2232.12 1589.83 2231.16 1591.03 2231.16 1592.46C2231.16 1593.42 2232.6 1593.42 2235.46 1592.46C2236.9 1591.98 2237.61 1591.74 2237.61 1591.74C2237.61 1591.27 2238.09 1590.55 2239.05 1589.59C2240 1588.64 2240.72 1587.92 2241.2 1587.44C2241.67 1586.97 2242.39 1586.25 2243.34 1585.29C2243.82 1584.82 2245.02 1583.14 2246.93 1580.28L2251.94 1575.26C2253.38 1574.3 2254.33 1573.11 2254.81 1571.68C2255.29 1569.77 2256 1568.57 2256.96 1568.09C2257.92 1567.62 2258.15 1567.14 2257.68 1566.66C2257.68 1566.18 2257.68 1565.7 2257.68 1565.23C2258.15 1564.27 2258.39 1563.32 2258.39 1562.36C2258.39 1561.88 2257.92 1561.64 2256.96 1561.64H2255.53C2254.09 1562.6 2253.38 1563.79 2253.38 1565.23C2252.9 1565.7 2252.18 1565.94 2251.23 1565.94C2250.75 1565.94 2250.27 1566.18 2249.79 1566.66C2249.32 1567.14 2248.84 1567.85 2248.36 1568.81C2248.36 1569.77 2248.12 1570.72 2247.64 1571.68C2247.17 1572.63 2246.45 1573.11 2245.49 1573.11C2245.02 1572.63 2244.54 1572.87 2244.06 1573.83L2241.2 1576.69C2240.72 1578.13 2240.48 1579.56 2240.48 1580.99C2240 1582.43 2239.28 1584.1 2238.33 1586.01C2237.85 1586.97 2237.13 1587.44 2236.18 1587.44C2235.22 1587.44 2234.51 1587.92 2234.03 1588.88Z" fill="#C2CF43"/>
<path d="M2260.5 1784.53C2259.07 1773.54 2263.61 1758.73 2274.12 1740.1C2279.85 1730.06 2287.02 1719.55 2295.62 1708.56C2303.74 1697.09 2312.58 1685.63 2322.13 1674.16C2333.59 1660.78 2345.54 1647.88 2357.96 1635.46C2369.9 1622.56 2380.89 1610.86 2390.92 1600.34C2398.57 1592.7 2405.01 1586.49 2410.27 1581.71C2416 1576.93 2420.3 1573.11 2423.17 1570.24C2424.12 1569.77 2425.56 1569.05 2427.47 1568.09C2429.38 1567.14 2431.53 1566.18 2433.92 1565.23C2448.73 1562.84 2459.24 1562.12 2465.45 1563.08C2472.13 1563.55 2478.11 1563.79 2483.36 1563.79C2484.79 1564.27 2486.23 1564.99 2487.66 1565.94C2489.57 1566.42 2489.33 1567.85 2486.94 1570.24C2465.45 1586.97 2443.47 1607.03 2421.02 1630.44C2399.04 1653.38 2378.5 1675.59 2359.39 1697.09C2371.33 1688.97 2384.95 1679.42 2400.24 1668.43C2416 1657.44 2432.24 1645.97 2448.96 1634.03C2463.3 1623.99 2479.78 1613.01 2498.41 1601.06C2517.04 1588.64 2535.43 1577.41 2553.59 1567.38C2572.22 1556.87 2589.18 1548.5 2604.46 1542.29C2620.23 1536.08 2632.41 1533.93 2641.01 1535.84C2644.83 1536.8 2649.13 1537.99 2653.91 1539.43C2658.68 1540.86 2662.74 1543.49 2666.09 1547.31C2670.87 1552.57 2671.82 1559.73 2668.96 1568.81C2666.09 1577.89 2660.59 1588.16 2652.47 1599.63C2644.83 1610.62 2635.28 1622.56 2623.81 1635.46C2612.82 1648.36 2601.36 1661.02 2589.41 1673.44C2577.95 1685.87 2566.72 1697.81 2555.74 1709.28C2545.23 1720.75 2536.63 1731.02 2529.94 1740.1C2523.25 1749.17 2519.19 1756.34 2517.76 1761.6C2516.32 1767.33 2519.19 1770.43 2526.36 1770.91C2535.43 1771.87 2546.18 1770.43 2558.6 1766.61C2571.02 1763.27 2584.4 1758.49 2598.73 1752.28C2613.06 1746.07 2627.87 1738.9 2643.16 1730.78C2658.45 1722.18 2673.25 1713.58 2687.59 1704.98C2721.5 1684.43 2757.09 1660.78 2794.36 1634.03H2820.15C2780.98 1665.56 2742.29 1693.27 2704.07 1717.16C2687.82 1727.2 2670.87 1736.99 2653.19 1746.55C2635.51 1756.1 2617.84 1764.22 2600.16 1770.91C2582.49 1778.08 2565.05 1783.33 2547.85 1786.68C2531.13 1790.02 2515.61 1790.74 2501.27 1788.83C2486.47 1786.92 2478.11 1780.71 2476.19 1770.2C2474.76 1760.16 2477.39 1748.22 2484.08 1734.36C2491.24 1720.03 2500.8 1704.5 2512.74 1687.78C2525.16 1671.06 2537.58 1655.53 2550 1641.19C2562.42 1626.38 2573.65 1613.48 2583.68 1602.49C2593.71 1591.03 2599.69 1583.62 2601.6 1580.28C2604.46 1575.98 2605.9 1572.39 2605.9 1569.53C2605.9 1569.05 2602.55 1569.77 2595.86 1571.68C2589.65 1573.11 2578.9 1578.13 2563.62 1586.73C2548.81 1594.85 2528.74 1607.75 2503.42 1625.43C2478.11 1642.63 2446.58 1666.76 2408.84 1697.81C2380.65 1720.27 2359.15 1737.71 2344.34 1750.13C2329.06 1762.55 2317.83 1771.87 2310.66 1778.08C2303.02 1784.29 2298.24 1788.35 2296.33 1790.26C2293.94 1792.65 2291.79 1795.04 2289.88 1797.43C2287.97 1799.34 2286.54 1800.3 2285.58 1800.3C2284.63 1800.3 2283.67 1800.3 2282.72 1800.3C2279.85 1798.86 2276.27 1796.71 2271.97 1793.85C2267.67 1791.46 2263.85 1788.35 2260.5 1784.53ZM2602.31 1649.08C2602.31 1648.6 2601.84 1648.36 2600.88 1648.36C2600.4 1648.36 2599.69 1648.6 2598.73 1649.08C2597.77 1650.03 2596.82 1650.99 2595.86 1651.94C2595.39 1652.9 2594.91 1653.86 2594.43 1654.81C2593.47 1655.77 2592.28 1656.48 2590.85 1656.96C2589.89 1657.44 2588.94 1658.16 2587.98 1659.11C2587.5 1659.59 2586.79 1660.78 2585.83 1662.69C2584.88 1664.13 2583.92 1665.56 2582.97 1666.99C2582.01 1667.95 2581.05 1668.67 2580.1 1669.14C2579.14 1669.62 2578.19 1670.34 2577.23 1671.29C2575.32 1673.21 2573.65 1675.12 2572.22 1677.03C2570.78 1678.94 2569.83 1681.09 2569.35 1683.48C2568.39 1684.43 2567.44 1685.63 2566.48 1687.06C2566.01 1688.49 2565.29 1689.69 2564.33 1690.64C2563.38 1692.08 2562.18 1693.27 2560.75 1694.23C2559.32 1695.18 2558.12 1696.14 2557.17 1697.09C2556.21 1698.05 2555.26 1699.24 2554.3 1700.68C2553.35 1701.63 2552.63 1702.83 2552.15 1704.26C2552.15 1705.22 2552.63 1705.22 2553.59 1704.26C2554.54 1703.31 2555.97 1702.35 2557.88 1701.39C2560.27 1700.44 2561.47 1699.72 2561.47 1699.24C2561.95 1698.29 2562.9 1697.09 2564.33 1695.66C2565.77 1694.71 2566.72 1693.75 2567.2 1692.79C2568.16 1691.36 2569.59 1689.69 2571.5 1687.78C2572.46 1686.82 2573.41 1685.63 2574.37 1684.19C2575.8 1682.76 2577.23 1681.33 2578.67 1679.89C2580.1 1677.98 2581.53 1676.31 2582.97 1674.88C2584.88 1672.97 2586.31 1671.53 2587.26 1670.58C2590.13 1668.19 2592.28 1665.8 2593.71 1663.41C2595.15 1660.54 2596.58 1658.63 2598.01 1657.68C2599.45 1656.72 2599.92 1656.01 2599.45 1655.53C2599.45 1654.57 2599.92 1653.62 2600.88 1652.66C2601.84 1651.71 2602.31 1650.51 2602.31 1649.08ZM2633.13 1616.83C2629.3 1620.65 2625.24 1624.23 2620.94 1627.58C2616.64 1630.92 2613.06 1634.27 2610.2 1637.61C2607.33 1640.96 2605.9 1642.63 2605.9 1642.63C2605.9 1642.63 2605.66 1643.58 2605.18 1645.49C2603.27 1649.32 2606.85 1646.69 2615.93 1637.61C2617.84 1635.7 2619.03 1634.27 2619.51 1633.31C2620.47 1632.36 2620.94 1631.64 2620.94 1631.16C2621.42 1630.68 2621.9 1630.21 2622.38 1629.73C2622.85 1629.25 2624.05 1628.06 2625.96 1626.14C2631.69 1619.46 2634.08 1616.35 2633.13 1616.83ZM2394.5 1607.51C2394.03 1608.94 2394.27 1608.94 2395.22 1607.51C2396.65 1606.08 2398.56 1604.17 2400.95 1601.78C2403.34 1599.87 2405.25 1597.96 2406.69 1596.04C2408.6 1594.13 2411.22 1591.74 2414.57 1588.88C2418.39 1586.01 2420.3 1584.34 2420.3 1583.86C2420.78 1583.38 2421.73 1582.19 2423.17 1580.28C2424.12 1579.32 2423.88 1578.84 2422.45 1578.84C2421.97 1578.84 2421.73 1579.08 2421.73 1579.56C2421.73 1579.56 2421.5 1579.56 2421.02 1579.56H2420.3C2417.43 1580.99 2415.29 1582.43 2413.85 1583.86C2412.9 1585.29 2411.7 1586.97 2410.27 1588.88C2408.84 1590.79 2407.16 1592.46 2405.25 1593.89C2403.34 1595.33 2401.19 1597.24 2398.8 1599.63C2396.42 1602.02 2395.22 1603.69 2395.22 1604.64C2395.22 1605.12 2394.98 1606.08 2394.5 1607.51ZM2350.79 1651.23C2350.32 1651.71 2350.55 1651.94 2351.51 1651.94L2355.81 1647.64C2356.76 1646.69 2357.96 1645.49 2359.39 1644.06C2360.83 1642.15 2361.78 1641.19 2362.26 1641.19L2369.42 1634.03C2369.9 1633.55 2370.38 1633.31 2370.86 1633.31C2372.29 1632.36 2373.72 1631.16 2375.16 1629.73C2376.59 1627.82 2378.5 1625.67 2380.89 1623.28C2383.28 1620.89 2384.71 1619.46 2385.19 1618.98C2386.14 1618.02 2387.1 1616.83 2388.06 1615.39C2388.53 1613.96 2388.06 1613.24 2386.62 1613.24C2385.67 1613.24 2384.71 1613.48 2383.76 1613.96L2378.02 1619.69C2377.07 1621.13 2375.87 1622.56 2374.44 1623.99C2373.01 1625.43 2371.81 1626.86 2370.86 1628.29L2361.54 1637.61C2358.68 1640.48 2356.76 1642.87 2355.81 1644.78C2354.85 1645.73 2353.9 1646.93 2352.94 1648.36C2351.99 1649.32 2351.27 1650.27 2350.79 1651.23ZM2307.08 1700.68C2307.56 1700.68 2308.28 1699.96 2309.23 1698.53C2310.19 1698.05 2311.14 1697.33 2312.1 1696.38C2312.58 1694.94 2313.29 1693.99 2314.25 1693.51C2313.29 1694.47 2313.29 1694.71 2314.25 1694.23C2314.72 1693.75 2315.44 1693.03 2316.4 1692.08C2317.35 1690.64 2318.55 1689.69 2319.98 1689.21C2320.94 1688.73 2321.89 1688.02 2322.85 1687.06C2323.32 1686.11 2323.56 1684.91 2323.56 1683.48C2324.52 1682.52 2325.23 1681.57 2325.71 1680.61C2325.71 1679.66 2326.19 1678.7 2327.15 1677.74C2329.06 1675.83 2330.01 1674.64 2330.01 1674.16V1673.44C2330.01 1672.01 2328.58 1673.21 2325.71 1677.03C2325.23 1677.51 2324.76 1678.22 2324.28 1679.18C2323.8 1679.66 2323.09 1680.37 2322.13 1681.33C2320.22 1683.24 2318.79 1684.91 2317.83 1686.34C2317.83 1686.82 2317.35 1687.54 2316.4 1688.49C2315.44 1689.45 2314.72 1690.41 2314.25 1691.36L2312.1 1693.51C2311.14 1694.47 2310.19 1695.9 2309.23 1697.81C2308.28 1699.24 2307.56 1700.2 2307.08 1700.68Z" fill="#C2CF43"/>
<path d="M2743.52 1760.88C2724.89 1758.97 2714.14 1753.23 2711.27 1743.68C2708.41 1734.12 2710.08 1723.13 2716.29 1710.71C2722.5 1697.81 2731.34 1684.91 2742.8 1672.01C2753.79 1658.63 2764.06 1647.17 2773.62 1637.61C2775.53 1635.7 2781.02 1633.31 2790.1 1630.44C2798.7 1627.1 2807.53 1624.47 2816.61 1622.56C2826.16 1620.17 2834.29 1619.22 2840.97 1619.69C2847.66 1620.17 2850.05 1622.8 2848.14 1627.58C2838.59 1639.52 2827.12 1652.18 2813.74 1665.56C2800.85 1678.46 2789.38 1690.64 2779.35 1702.11C2769.32 1713.1 2762.63 1722.66 2759.28 1730.78C2755.46 1738.42 2758.57 1742.48 2768.6 1742.96C2777.68 1743.92 2787.95 1742.96 2799.41 1740.1C2811.35 1737.23 2823.54 1733.41 2835.96 1728.63C2848.86 1723.37 2861.99 1717.64 2875.37 1711.43C2888.75 1704.74 2901.64 1697.81 2914.06 1690.64C2943.68 1674.4 2974.02 1655.53 3005.07 1634.03H3031.58C2995.76 1660.31 2960.4 1683 2925.53 1702.11C2910.72 1710.23 2895.2 1718.12 2878.95 1725.76C2862.71 1733.41 2846.71 1740.1 2830.94 1745.83C2815.18 1751.56 2799.89 1755.86 2785.08 1758.73C2769.79 1761.6 2755.94 1762.31 2743.52 1760.88ZM2815.89 1649.79C2814.46 1651.71 2813.74 1652.9 2813.74 1653.38C2813.74 1653.86 2813.74 1654.57 2813.74 1655.53C2813.74 1656.48 2813.98 1656.48 2814.46 1655.53C2815.42 1654.57 2816.61 1653.62 2818.04 1652.66C2819.48 1651.71 2820.67 1650.75 2821.63 1649.79C2822.58 1648.36 2824.25 1646.69 2826.64 1644.78C2829.03 1642.87 2830.22 1641.67 2830.22 1641.19C2830.22 1640.72 2830.7 1640 2831.66 1639.04C2832.61 1638.09 2832.37 1637.61 2830.94 1637.61H2828.79C2826.88 1638.57 2825.69 1639.52 2825.21 1640.48C2824.73 1641.43 2824.01 1642.39 2823.06 1643.34C2822.1 1644.3 2821.15 1645.26 2820.19 1646.21C2819.24 1647.17 2817.8 1648.36 2815.89 1649.79ZM2786.51 1682.04C2786.51 1682.52 2786.75 1682.76 2787.23 1682.76C2787.23 1682.28 2787.23 1682.28 2787.23 1682.76C2787.71 1682.76 2788.19 1682.52 2788.66 1682.04C2789.14 1681.09 2789.62 1680.37 2790.1 1679.89C2790.57 1679.89 2791.53 1679.18 2792.96 1677.74L2794.4 1676.31C2794.87 1675.83 2795.11 1675.36 2795.11 1674.88C2795.59 1674.4 2796.31 1673.92 2797.26 1673.44L2799.41 1672.01H2800.13C2801.08 1671.06 2801.8 1670.1 2802.28 1669.14C2803.23 1668.19 2804.43 1666.99 2805.86 1665.56C2807.29 1664.61 2808.01 1663.89 2808.01 1663.41C2808.49 1662.46 2809.21 1661.5 2810.16 1660.54C2811.12 1659.59 2810.64 1659.11 2808.73 1659.11H2806.58C2805.62 1659.59 2804.43 1660.78 2802.99 1662.69C2801.56 1664.13 2800.13 1665.8 2798.7 1667.71C2798.7 1668.19 2798.46 1668.43 2797.98 1668.43C2797.98 1668.43 2797.98 1668.67 2797.98 1669.14C2797.02 1670.1 2796.31 1670.82 2795.83 1671.29C2795.35 1671.77 2794.63 1672.49 2793.68 1673.44C2792.72 1674.4 2792.01 1675.36 2791.53 1676.31C2790.57 1676.79 2789.86 1677.27 2789.38 1677.74C2788.42 1678.7 2787.47 1680.13 2786.51 1682.04ZM2761.43 1712.86C2760.96 1713.34 2760.96 1713.58 2761.43 1713.58L2762.87 1712.15C2762.87 1709.76 2763.58 1708.56 2765.02 1708.56C2764.54 1709.52 2765.26 1709.04 2767.17 1707.13C2767.64 1706.17 2768.12 1705.69 2768.6 1705.69C2769.08 1705.69 2769.79 1705.22 2770.75 1704.26C2771.23 1703.78 2771.23 1703.07 2770.75 1702.11C2771.7 1700.2 2772.42 1699.01 2772.9 1698.53C2773.85 1697.57 2774.33 1696.62 2774.33 1695.66V1694.94C2773.38 1693.99 2772.42 1694.71 2771.47 1697.09C2770.99 1697.57 2770.75 1698.05 2770.75 1698.53C2770.27 1699.01 2769.79 1699.48 2769.32 1699.96C2768.36 1700.92 2767.64 1702.11 2767.17 1703.55C2766.21 1704.5 2765.26 1705.46 2764.3 1706.41C2764.3 1706.89 2764.06 1707.37 2763.58 1707.85C2762.63 1708.8 2762.15 1709.76 2762.15 1710.71C2761.67 1711.19 2761.43 1711.67 2761.43 1712.15V1712.86ZM2814.46 1601.06C2810.64 1600.11 2810.4 1596.52 2813.74 1590.31C2817.57 1584.1 2822.34 1577.17 2828.08 1569.53C2833.81 1561.88 2839.06 1554.24 2843.84 1546.59C2849.09 1538.47 2851.01 1532.02 2849.57 1527.24C2849.57 1526.77 2849.81 1526.05 2850.29 1525.09C2851.24 1523.18 2854.11 1520.79 2858.89 1517.93C2862.71 1515.54 2869.4 1512.67 2878.95 1509.33C2888.98 1505.5 2898.06 1503.35 2906.18 1502.88C2914.78 1501.92 2920.51 1503.83 2923.38 1508.61C2926.72 1513.39 2923.86 1523.18 2914.78 1537.99C2908.09 1548.5 2899.97 1558.3 2890.42 1567.38C2881.34 1576.45 2871.79 1587.2 2861.75 1599.63C2854.11 1600.11 2847.18 1600.58 2840.97 1601.06C2835.72 1601.54 2830.46 1602.02 2825.21 1602.49C2820.43 1602.49 2816.85 1602.02 2814.46 1601.06ZM2888.27 1555.19C2886.83 1557.1 2886.12 1558.06 2886.12 1558.06C2886.12 1558.06 2886.12 1558.78 2886.12 1560.21C2886.12 1562.6 2888.27 1561.17 2892.57 1555.91C2894.96 1553.52 2895.91 1552.57 2895.43 1553.04C2894.96 1553.04 2895.67 1551.85 2897.58 1549.46C2899.49 1547.07 2900.69 1545.4 2901.17 1544.44C2901.64 1543.49 2901.64 1543.25 2901.17 1543.73C2898.78 1545.64 2896.39 1547.55 2894 1549.46C2891.61 1551.37 2889.7 1553.28 2888.27 1555.19ZM2861.04 1588.88C2859.13 1589.83 2858.17 1591.03 2858.17 1592.46C2858.17 1593.42 2859.6 1593.42 2862.47 1592.46C2863.9 1591.98 2864.62 1591.74 2864.62 1591.74C2864.62 1591.27 2865.1 1590.55 2866.05 1589.59C2867.01 1588.64 2867.73 1587.92 2868.2 1587.44C2868.68 1586.97 2869.4 1586.25 2870.35 1585.29C2870.83 1584.82 2872.03 1583.14 2873.94 1580.28L2878.95 1575.26C2880.39 1574.3 2881.34 1573.11 2881.82 1571.68C2882.3 1569.77 2883.01 1568.57 2883.97 1568.09C2884.92 1567.62 2885.16 1567.14 2884.69 1566.66C2884.69 1566.18 2884.69 1565.7 2884.69 1565.23C2885.16 1564.27 2885.4 1563.32 2885.4 1562.36C2885.4 1561.88 2884.92 1561.64 2883.97 1561.64H2882.54C2881.1 1562.6 2880.39 1563.79 2880.39 1565.23C2879.91 1565.7 2879.19 1565.94 2878.24 1565.94C2877.76 1565.94 2877.28 1566.18 2876.8 1566.66C2876.33 1567.14 2875.85 1567.85 2875.37 1568.81C2875.37 1569.77 2875.13 1570.72 2874.65 1571.68C2874.18 1572.63 2873.46 1573.11 2872.5 1573.11C2872.03 1572.63 2871.55 1572.87 2871.07 1573.83L2868.2 1576.69C2867.73 1578.13 2867.49 1579.56 2867.49 1580.99C2867.01 1582.43 2866.29 1584.1 2865.34 1586.01C2864.86 1586.97 2864.14 1587.44 2863.19 1587.44C2862.23 1587.44 2861.52 1587.92 2861.04 1588.88Z" fill="#C2CF43"/>
<path d="M2887.51 1784.53C2886.08 1773.54 2890.62 1758.73 2901.13 1740.1C2906.86 1730.06 2914.03 1719.55 2922.62 1708.56C2930.75 1697.09 2939.58 1685.63 2949.14 1674.16C2960.6 1660.78 2972.55 1647.88 2984.97 1635.46C2996.91 1622.56 3007.9 1610.86 3017.93 1600.34C3025.57 1592.7 3032.02 1586.49 3037.28 1581.71C3043.01 1576.93 3047.31 1573.11 3050.18 1570.24C3051.13 1569.77 3052.56 1569.05 3054.48 1568.09C3056.39 1567.14 3058.54 1566.18 3060.92 1565.23C3075.73 1562.84 3086.24 1562.12 3092.45 1563.08C3099.14 1563.55 3105.11 1563.79 3110.37 1563.79C3111.8 1564.27 3113.24 1564.99 3114.67 1565.94C3116.58 1566.42 3116.34 1567.85 3113.95 1570.24C3092.45 1586.97 3070.48 1607.03 3048.03 1630.44C3026.05 1653.38 3005.51 1675.59 2986.4 1697.09C2998.34 1688.97 3011.96 1679.42 3027.25 1668.43C3043.01 1657.44 3059.25 1645.97 3075.97 1634.03C3090.3 1623.99 3106.79 1613.01 3125.42 1601.06C3144.05 1588.64 3162.44 1577.41 3180.59 1567.38C3199.23 1556.87 3216.18 1548.5 3231.47 1542.29C3247.24 1536.08 3259.42 1533.93 3268.02 1535.84C3271.84 1536.8 3276.14 1537.99 3280.92 1539.43C3285.69 1540.86 3289.75 1543.49 3293.1 1547.31C3297.87 1552.57 3298.83 1559.73 3295.96 1568.81C3293.1 1577.89 3287.6 1588.16 3279.48 1599.63C3271.84 1610.62 3262.28 1622.56 3250.82 1635.46C3239.83 1648.36 3228.37 1661.02 3216.42 1673.44C3204.96 1685.87 3193.73 1697.81 3182.74 1709.28C3172.23 1720.75 3163.63 1731.02 3156.95 1740.1C3150.26 1749.17 3146.2 1756.34 3144.76 1761.6C3143.33 1767.33 3146.2 1770.43 3153.36 1770.91C3162.44 1771.87 3173.19 1770.43 3185.61 1766.61C3198.03 1763.27 3211.41 1758.49 3225.74 1752.28C3240.07 1746.07 3254.88 1738.9 3270.17 1730.78C3285.45 1722.18 3300.26 1713.58 3314.59 1704.98C3348.51 1684.43 3384.1 1660.78 3421.37 1634.03H3447.16C3407.99 1665.56 3369.29 1693.27 3331.08 1717.16C3314.83 1727.2 3297.87 1736.99 3280.2 1746.55C3262.52 1756.1 3244.85 1764.22 3227.17 1770.91C3209.5 1778.08 3192.06 1783.33 3174.86 1786.68C3158.14 1790.02 3142.61 1790.74 3128.28 1788.83C3113.47 1786.92 3105.11 1780.71 3103.2 1770.2C3101.77 1760.16 3104.4 1748.22 3111.09 1734.36C3118.25 1720.03 3127.81 1704.5 3139.75 1687.78C3152.17 1671.06 3164.59 1655.53 3177.01 1641.19C3189.43 1626.38 3200.66 1613.48 3210.69 1602.49C3220.72 1591.03 3226.69 1583.62 3228.6 1580.28C3231.47 1575.98 3232.9 1572.39 3232.9 1569.53C3232.9 1569.05 3229.56 1569.77 3222.87 1571.68C3216.66 1573.11 3205.91 1578.13 3190.63 1586.73C3175.82 1594.85 3155.75 1607.75 3130.43 1625.43C3105.11 1642.63 3073.58 1666.76 3035.84 1697.81C3007.66 1720.27 2986.16 1737.71 2971.35 1750.13C2956.07 1762.55 2944.84 1771.87 2937.67 1778.08C2930.03 1784.29 2925.25 1788.35 2923.34 1790.26C2920.95 1792.65 2918.8 1795.04 2916.89 1797.43C2914.98 1799.34 2913.55 1800.3 2912.59 1800.3C2911.64 1800.3 2910.68 1800.3 2909.73 1800.3C2906.86 1798.86 2903.28 1796.71 2898.98 1793.85C2894.68 1791.46 2890.86 1788.35 2887.51 1784.53ZM3229.32 1649.08C3229.32 1648.6 3228.84 1648.36 3227.89 1648.36C3227.41 1648.36 3226.69 1648.6 3225.74 1649.08C3224.78 1650.03 3223.83 1650.99 3222.87 1651.94C3222.39 1652.9 3221.92 1653.86 3221.44 1654.81C3220.48 1655.77 3219.29 1656.48 3217.86 1656.96C3216.9 1657.44 3215.95 1658.16 3214.99 1659.11C3214.51 1659.59 3213.8 1660.78 3212.84 1662.69C3211.88 1664.13 3210.93 1665.56 3209.97 1666.99C3209.02 1667.95 3208.06 1668.67 3207.11 1669.14C3206.15 1669.62 3205.2 1670.34 3204.24 1671.29C3202.33 1673.21 3200.66 1675.12 3199.22 1677.03C3197.79 1678.94 3196.84 1681.09 3196.36 1683.48C3195.4 1684.43 3194.45 1685.63 3193.49 1687.06C3193.01 1688.49 3192.3 1689.69 3191.34 1690.64C3190.39 1692.08 3189.19 1693.27 3187.76 1694.23C3186.33 1695.18 3185.13 1696.14 3184.18 1697.09C3183.22 1698.05 3182.27 1699.24 3181.31 1700.68C3180.35 1701.63 3179.64 1702.83 3179.16 1704.26C3179.16 1705.22 3179.64 1705.22 3180.59 1704.26C3181.55 1703.31 3182.98 1702.35 3184.89 1701.39C3187.28 1700.44 3188.48 1699.72 3188.48 1699.24C3188.95 1698.29 3189.91 1697.09 3191.34 1695.66C3192.78 1694.71 3193.73 1693.75 3194.21 1692.79C3195.16 1691.36 3196.6 1689.69 3198.51 1687.78C3199.46 1686.82 3200.42 1685.63 3201.37 1684.19C3202.81 1682.76 3204.24 1681.33 3205.67 1679.89C3207.11 1677.98 3208.54 1676.31 3209.97 1674.88C3211.88 1672.97 3213.32 1671.53 3214.27 1670.58C3217.14 1668.19 3219.29 1665.8 3220.72 1663.41C3222.16 1660.54 3223.59 1658.63 3225.02 1657.68C3226.46 1656.72 3226.93 1656.01 3226.46 1655.53C3226.46 1654.57 3226.93 1653.62 3227.89 1652.66C3228.84 1651.71 3229.32 1650.51 3229.32 1649.08ZM3260.13 1616.83C3256.31 1620.65 3252.25 1624.23 3247.95 1627.58C3243.65 1630.92 3240.07 1634.27 3237.2 1637.61C3234.34 1640.96 3232.9 1642.63 3232.9 1642.63C3232.9 1642.63 3232.67 1643.58 3232.19 1645.49C3230.28 1649.32 3233.86 1646.69 3242.94 1637.61C3244.85 1635.7 3246.04 1634.27 3246.52 1633.31C3247.47 1632.36 3247.95 1631.64 3247.95 1631.16C3248.43 1630.68 3248.91 1630.21 3249.39 1629.73C3249.86 1629.25 3251.06 1628.06 3252.97 1626.14C3258.7 1619.46 3261.09 1616.35 3260.13 1616.83ZM3021.51 1607.51C3021.04 1608.94 3021.27 1608.94 3022.23 1607.51C3023.66 1606.08 3025.57 1604.17 3027.96 1601.78C3030.35 1599.87 3032.26 1597.96 3033.69 1596.04C3035.61 1594.13 3038.23 1591.74 3041.58 1588.88C3045.4 1586.01 3047.31 1584.34 3047.31 1583.86C3047.79 1583.38 3048.74 1582.19 3050.18 1580.28C3051.13 1579.32 3050.89 1578.84 3049.46 1578.84C3048.98 1578.84 3048.74 1579.08 3048.74 1579.56C3048.74 1579.56 3048.5 1579.56 3048.03 1579.56H3047.31C3044.44 1580.99 3042.29 1582.43 3040.86 1583.86C3039.91 1585.29 3038.71 1586.97 3037.28 1588.88C3035.84 1590.79 3034.17 1592.46 3032.26 1593.89C3030.35 1595.33 3028.2 1597.24 3025.81 1599.63C3023.42 1602.02 3022.23 1603.69 3022.23 1604.64C3022.23 1605.12 3021.99 1606.08 3021.51 1607.51ZM2977.8 1651.23C2977.32 1651.71 2977.56 1651.94 2978.52 1651.94L2982.82 1647.64C2983.77 1646.69 2984.97 1645.49 2986.4 1644.06C2987.83 1642.15 2988.79 1641.19 2989.27 1641.19L2996.43 1634.03C2996.91 1633.55 2997.39 1633.31 2997.87 1633.31C2999.3 1632.36 3000.73 1631.16 3002.16 1629.73C3003.6 1627.82 3005.51 1625.67 3007.9 1623.28C3010.29 1620.89 3011.72 1619.46 3012.2 1618.98C3013.15 1618.02 3014.11 1616.83 3015.06 1615.39C3015.54 1613.96 3015.06 1613.24 3013.63 1613.24C3012.68 1613.24 3011.72 1613.48 3010.76 1613.96L3005.03 1619.69C3004.08 1621.13 3002.88 1622.56 3001.45 1623.99C3000.02 1625.43 2998.82 1626.86 2997.87 1628.29L2988.55 1637.61C2985.68 1640.48 2983.77 1642.87 2982.82 1644.78C2981.86 1645.73 2980.91 1646.93 2979.95 1648.36C2979 1649.32 2978.28 1650.27 2977.8 1651.23ZM2934.09 1700.68C2934.57 1700.68 2935.28 1699.96 2936.24 1698.53C2937.2 1698.05 2938.15 1697.33 2939.11 1696.38C2939.58 1694.94 2940.3 1693.99 2941.26 1693.51C2940.3 1694.47 2940.3 1694.71 2941.26 1694.23C2941.73 1693.75 2942.45 1693.03 2943.41 1692.08C2944.36 1690.64 2945.56 1689.69 2946.99 1689.21C2947.94 1688.73 2948.9 1688.02 2949.85 1687.06C2950.33 1686.11 2950.57 1684.91 2950.57 1683.48C2951.53 1682.52 2952.24 1681.57 2952.72 1680.61C2952.72 1679.66 2953.2 1678.7 2954.15 1677.74C2956.07 1675.83 2957.02 1674.64 2957.02 1674.16V1673.44C2957.02 1672.01 2955.59 1673.21 2952.72 1677.03C2952.24 1677.51 2951.77 1678.22 2951.29 1679.18C2950.81 1679.66 2950.09 1680.37 2949.14 1681.33C2947.23 1683.24 2945.79 1684.91 2944.84 1686.34C2944.84 1686.82 2944.36 1687.54 2943.41 1688.49C2942.45 1689.45 2941.73 1690.41 2941.26 1691.36L2939.11 1693.51C2938.15 1694.47 2937.2 1695.9 2936.24 1697.81C2935.28 1699.24 2934.57 1700.2 2934.09 1700.68Z" fill="#C2CF43"/>
<path d="M3352.61 1673.44C3358.82 1666.76 3369.57 1656.96 3384.86 1644.06C3400.15 1631.16 3417.82 1617.78 3437.89 1603.93C3441.23 1602.02 3445.77 1599.39 3451.5 1596.04C3457.71 1592.22 3464.16 1588.4 3470.85 1584.58C3479.93 1579.8 3491.15 1574.54 3504.53 1568.81C3517.9 1562.6 3531.04 1557.82 3543.94 1554.48C3557.32 1550.65 3569.5 1548.98 3580.49 1549.46C3591.47 1549.94 3599.36 1554.24 3604.13 1562.36C3605.09 1559.97 3606.28 1557.58 3607.72 1555.19C3609.15 1552.33 3610.58 1549.7 3612.01 1547.31C3612.49 1546.35 3613.93 1545.64 3616.31 1545.16C3618.7 1544.2 3622.52 1544.92 3627.78 1547.31C3629.69 1548.27 3632.08 1549.7 3634.95 1551.61C3638.29 1553.52 3641.16 1555.67 3643.54 1558.06C3645.93 1559.97 3647.84 1562.36 3649.28 1565.23C3650.71 1567.62 3650.71 1570 3649.28 1572.39C3645.46 1578.6 3640.68 1586.49 3634.95 1596.04C3629.21 1605.12 3622.52 1615.87 3614.88 1628.29C3610.1 1635.46 3605.09 1643.11 3599.83 1651.23C3595.06 1659.35 3589.8 1667.71 3584.07 1676.31C3580.25 1681.57 3576.42 1687.06 3572.6 1692.79C3568.78 1698.53 3564.96 1704.26 3561.14 1710C3563.53 1709.04 3565.68 1708.32 3567.59 1707.85C3569.5 1706.89 3571.65 1705.93 3574.04 1704.98C3604.61 1694.47 3634.23 1685.15 3662.89 1677.03C3692.03 1668.91 3718.79 1661.98 3743.15 1656.24C3767.51 1650.51 3788.77 1645.73 3806.92 1641.91C3825.08 1638.09 3838.69 1635.22 3847.77 1633.31L3875 1643.34C3873.57 1643.82 3871.9 1644.3 3869.98 1644.78C3868.55 1645.26 3866.64 1645.73 3864.25 1646.21C3862.34 1646.21 3859.95 1646.69 3857.09 1647.64C3847.05 1650.03 3832.72 1653.14 3814.09 1656.96C3795.94 1660.78 3774.92 1665.56 3751.03 1671.29C3727.62 1677.03 3701.83 1683.96 3673.64 1692.08C3645.46 1700.2 3616.55 1709.52 3586.93 1720.03C3581.68 1721.94 3574.27 1724.33 3564.72 1727.2C3555.64 1730.06 3548.72 1732.69 3543.94 1735.08C3541.55 1737.95 3539.4 1740.81 3537.49 1743.68C3536.06 1746.07 3534.15 1748.7 3531.76 1751.56C3517.43 1772.11 3502.14 1792.65 3485.9 1813.2C3470.13 1834.22 3453.89 1854.52 3437.17 1874.11C3420.45 1894.18 3403.49 1913.05 3386.29 1930.73C3369.09 1948.41 3352.13 1964.41 3335.41 1978.75C3329.68 1983.53 3322.52 1989.5 3313.92 1996.66C3304.84 2004.31 3295.53 2011.48 3285.97 2018.16C3276.42 2025.33 3267.34 2031.54 3258.74 2036.8C3250.14 2042.05 3243.45 2044.68 3238.68 2044.68C3232.94 2045.64 3228.64 2044.44 3225.78 2041.1C3222.43 2037.75 3220.52 2035.6 3220.05 2034.65C3218.61 2032.74 3216.7 2029.63 3214.31 2025.33C3211.92 2021.51 3210.01 2016.73 3208.58 2011C3206.67 2005.26 3205.47 1998.81 3205 1991.65C3204.04 1984.48 3204.76 1976.84 3207.15 1968.71C3208.58 1962.5 3212.4 1954.86 3218.61 1945.78C3224.82 1936.7 3232.47 1926.91 3241.54 1916.4C3250.62 1905.89 3260.89 1895.14 3272.36 1884.15C3283.34 1873.64 3294.81 1863.12 3306.75 1852.61C3318.22 1842.58 3329.92 1833.02 3341.86 1823.95C3353.33 1815.35 3364.08 1808.18 3374.11 1802.45C3391.31 1790.5 3409.22 1779.51 3427.85 1769.48C3446.48 1759.45 3465.83 1749.89 3485.9 1740.81C3493.06 1731.26 3500.23 1721.7 3507.39 1712.15C3515.04 1702.11 3522.2 1692.32 3528.89 1682.76C3537.01 1671.77 3544.66 1660.54 3551.82 1649.08C3559.47 1637.61 3566.87 1626.14 3574.04 1614.68C3574.99 1613.24 3575.71 1611.81 3576.19 1610.38C3577.14 1608.94 3578.1 1607.51 3579.05 1606.08C3571.89 1612.29 3560.66 1621.84 3545.37 1634.74C3530.09 1647.17 3513.13 1660.31 3494.5 1674.16C3475.86 1687.54 3456.76 1699.96 3437.17 1711.43C3418.06 1722.9 3400.62 1730.54 3384.86 1734.36C3373.87 1736.75 3365.03 1736.27 3358.35 1732.93C3351.18 1729.58 3346.16 1724.57 3343.3 1717.88C3340.43 1711.19 3339.71 1703.78 3341.15 1695.66C3342.58 1687.54 3346.4 1680.13 3352.61 1673.44ZM3236.53 2011.71C3238.44 2009.8 3246.08 2002.4 3259.46 1989.5C3272.83 1977.08 3290.03 1960.35 3311.05 1939.33C3331.59 1918.31 3354.76 1893.7 3380.56 1865.51C3405.88 1837.8 3431.68 1807.7 3457.95 1775.21C3439.8 1784.77 3422.36 1794.8 3405.64 1805.31C3388.44 1815.82 3372.2 1827.05 3356.91 1839C3355 1840.43 3347.84 1846.64 3335.41 1857.63C3322.99 1868.62 3309.38 1881.52 3294.57 1896.33C3283.58 1906.84 3273.31 1917.35 3263.76 1927.86C3253.72 1938.85 3246.08 1948.89 3240.83 1957.96C3238.91 1961.79 3236.77 1968.24 3234.38 1977.31C3231.99 1986.39 3232.7 1997.86 3236.53 2011.71ZM3308.9 1993.08C3309.86 1991.65 3309.62 1991.17 3308.18 1991.65C3306.27 1992.6 3303.41 1994.75 3299.59 1998.1C3297.67 1999.53 3296.48 2000.49 3296 2000.96C3295.52 2001.44 3295.29 2001.92 3295.29 2002.4C3294.81 2002.88 3294.33 2003.11 3293.85 2003.11C3293.38 2003.59 3292.42 2004.55 3290.99 2005.98C3287.64 2008.37 3285.49 2010.04 3284.54 2011C3283.58 2012.43 3283.34 2012.91 3283.82 2012.43C3287.64 2010.04 3291.46 2007.65 3295.29 2005.26C3298.63 2003.35 3301.5 2001.2 3303.89 1998.81C3306.27 1996.43 3307.47 1994.99 3307.47 1994.51C3307.47 1994.51 3307.95 1994.04 3308.9 1993.08ZM3399.91 1907.8C3400.38 1906.84 3400.15 1906.84 3399.19 1907.8C3398.71 1908.27 3398.23 1908.51 3397.76 1908.51C3397.28 1908.99 3396.8 1909.47 3396.32 1909.95C3395.37 1910.42 3394.65 1910.9 3394.17 1911.38C3393.7 1911.86 3392.98 1912.34 3392.02 1912.81C3389.16 1915.2 3387.49 1916.64 3387.01 1917.11C3386.53 1918.07 3385.1 1919.74 3382.71 1922.13C3380.32 1924.04 3378.41 1925.71 3376.98 1927.15C3375.54 1929.06 3373.39 1931.21 3370.53 1933.6C3369.09 1935.03 3367.18 1936.7 3364.79 1938.61C3362.41 1941 3360.02 1943.39 3357.63 1945.78C3354.76 1948.17 3352.13 1950.56 3349.75 1952.95C3347.36 1955.34 3344.97 1957.49 3342.58 1959.4C3338.28 1962.74 3334.7 1966.09 3331.83 1969.43C3328.49 1972.78 3325.62 1975.16 3323.23 1976.6C3320.84 1978.03 3319.65 1979.23 3319.65 1980.18C3319.17 1981.14 3318.22 1982.09 3316.78 1983.05C3315.83 1984.48 3315.35 1985.2 3315.35 1985.2C3314.87 1985.68 3314.16 1986.63 3313.2 1988.06C3312.72 1988.54 3312.72 1988.78 3313.2 1988.78C3313.68 1988.78 3314.39 1988.54 3315.35 1988.06H3316.78C3317.26 1988.06 3317.5 1987.83 3317.5 1987.35C3319.89 1985.91 3321.8 1984.48 3323.23 1983.05C3324.67 1981.61 3325.86 1980.42 3326.82 1979.46C3327.77 1978.51 3329.2 1977.31 3331.11 1975.88C3333.03 1974.93 3334.46 1973.97 3335.41 1973.01C3336.37 1972.06 3337.8 1970.39 3339.71 1968C3341.63 1966.09 3343.77 1964.18 3346.16 1962.26C3348.07 1960.35 3349.75 1959.16 3351.18 1958.68C3352.13 1958.2 3353.57 1957.01 3355.48 1955.1C3357.39 1953.66 3358.82 1952.47 3359.78 1951.51C3360.73 1951.04 3362.17 1949.6 3364.08 1947.21C3366.47 1944.82 3367.9 1943.15 3368.38 1942.2C3368.86 1941.72 3369.57 1940.52 3370.53 1938.61L3372.68 1936.46C3373.15 1935.51 3373.87 1934.55 3374.83 1933.6C3377.22 1931.21 3378.89 1929.3 3379.84 1927.86C3381.28 1926.43 3383.43 1924.76 3386.29 1922.85C3387.25 1921.89 3388.2 1920.94 3389.16 1919.98C3390.11 1919.5 3391.07 1918.79 3392.02 1917.83C3393.46 1916.4 3394.89 1914.72 3396.32 1912.81C3397.76 1911.38 3398.95 1909.71 3399.91 1907.8ZM3427.14 1876.26C3427.61 1875.31 3427.38 1875.31 3426.42 1876.26C3425.94 1877.7 3424.51 1879.37 3422.12 1881.28C3421.17 1882.24 3419.73 1883.91 3417.82 1886.3C3416.87 1887.25 3415.91 1888.21 3414.95 1889.16C3414 1890.12 3412.81 1891.07 3411.37 1892.03C3408.98 1894.9 3407.55 1896.57 3407.07 1897.05C3406.59 1897.52 3405.88 1898.48 3404.92 1899.91C3403.97 1900.87 3404.21 1901.35 3405.64 1901.35C3406.6 1901.35 3407.55 1901.11 3408.51 1900.63C3410.42 1899.2 3411.85 1897.76 3412.81 1896.33C3413.76 1895.37 3414.72 1894.18 3415.67 1892.75C3416.63 1891.79 3417.34 1891.07 3417.82 1890.6C3417.82 1890.12 3418.3 1889.4 3419.25 1888.45L3424.27 1883.43C3426.18 1881.04 3427.14 1879.61 3427.14 1879.13C3427.14 1878.65 3427.14 1877.7 3427.14 1876.26ZM3460.1 1839C3461.06 1838.04 3461.53 1837.09 3461.53 1836.13C3462.01 1835.17 3462.73 1834.22 3463.68 1833.26C3464.16 1832.31 3464.88 1831.59 3465.83 1831.11L3460.82 1836.13C3459.86 1838.04 3458.43 1839.71 3456.52 1841.15C3455.08 1843.06 3453.89 1844.49 3452.93 1845.45V1844.73C3451.98 1844.73 3451.26 1844.97 3450.78 1845.45C3450.31 1846.4 3449.35 1847.36 3447.92 1848.31C3446.96 1849.27 3446.01 1851.18 3445.05 1854.05C3443.62 1855 3442.42 1856.2 3441.47 1857.63C3440.51 1859.06 3439.08 1860.74 3437.17 1862.65C3436.21 1864.08 3435.26 1865.27 3434.3 1866.23C3433.83 1867.19 3433.35 1867.66 3432.87 1867.66C3432.87 1868.14 3432.63 1868.86 3432.15 1869.81C3431.68 1870.77 3432.15 1871.25 3433.59 1871.25C3434.06 1871.25 3434.78 1871.01 3435.74 1870.53C3436.21 1870.05 3436.69 1869.57 3437.17 1869.1C3437.65 1869.1 3438.12 1868.62 3438.6 1867.66C3440.51 1865.75 3441.71 1864.08 3442.19 1862.65C3443.62 1860.74 3444.81 1858.82 3445.77 1856.91C3447.2 1855.48 3448.63 1853.81 3450.07 1851.9C3451.02 1850.94 3451.74 1849.99 3452.22 1849.03C3453.17 1848.07 3454.13 1847.12 3455.08 1846.16C3456.04 1845.21 3456.76 1844.01 3457.23 1842.58C3458.19 1841.15 3459.14 1839.95 3460.1 1839ZM3493.78 1796C3494.73 1794.08 3494.97 1793.37 3494.5 1793.85C3494.02 1794.8 3493.06 1796 3491.63 1797.43C3490.67 1798.86 3489.48 1800.53 3488.05 1802.45C3488.52 1801.49 3488.52 1801.25 3488.05 1801.73C3487.57 1802.21 3486.85 1802.92 3485.9 1803.88C3484.94 1804.83 3483.99 1805.55 3483.03 1806.03C3482.55 1806.51 3481.84 1807.22 3480.88 1808.18C3479.92 1809.13 3479.92 1810.09 3480.88 1811.05C3479.92 1812 3479.45 1812.72 3479.45 1813.2C3479.45 1814.15 3478.97 1815.11 3478.01 1816.06C3476.58 1817.5 3475.86 1818.45 3475.86 1818.93V1819.65C3476.82 1818.69 3478.73 1816.54 3481.6 1813.2C3483.03 1811.76 3484.22 1810.09 3485.18 1808.18C3486.61 1806.75 3487.81 1805.31 3488.76 1803.88C3489.72 1802.45 3490.43 1801.01 3490.91 1799.58C3491.87 1798.15 3492.82 1796.95 3493.78 1796ZM3473 1594.61C3472.04 1596.52 3472.28 1596.76 3473.71 1595.33C3474.67 1594.85 3475.63 1594.37 3476.58 1593.89C3477.54 1593.42 3478.49 1592.94 3479.45 1592.46C3481.84 1591.5 3483.99 1590.55 3485.9 1589.59C3487.81 1588.16 3490.43 1586.73 3493.78 1585.29C3497.6 1583.86 3499.51 1583.14 3499.51 1583.14C3499.99 1582.67 3501.18 1581.95 3503.09 1580.99C3505.01 1580.04 3505.01 1579.56 3503.09 1579.56C3502.62 1579.56 3502.14 1579.56 3501.66 1579.56C3501.66 1579.08 3501.42 1578.84 3500.94 1578.84H3500.23C3499.27 1579.32 3498.32 1579.56 3497.36 1579.56C3496.41 1579.56 3495.45 1579.8 3494.5 1580.28C3494.02 1580.75 3493.54 1580.99 3493.06 1580.99C3493.06 1580.99 3492.82 1581.23 3492.35 1581.71C3491.87 1582.19 3491.39 1582.43 3490.91 1582.43C3490.91 1582.43 3490.67 1582.67 3490.2 1583.14C3488.76 1584.1 3487.09 1585.05 3485.18 1586.01C3484.22 1586.01 3483.27 1586.49 3482.31 1587.44C3481.36 1587.92 3480.64 1588.16 3480.16 1588.16C3479.69 1588.16 3479.21 1588.4 3478.73 1588.88C3475.86 1590.31 3474.19 1591.5 3473.71 1592.46C3473.71 1592.94 3473.48 1593.66 3473 1594.61ZM3429.29 1621.84C3428.33 1622.32 3428.33 1622.56 3429.29 1622.56C3429.76 1622.56 3430.48 1622.32 3431.44 1621.84C3432.39 1620.89 3433.11 1620.17 3433.59 1619.69C3434.54 1619.22 3435.74 1618.5 3437.17 1617.54C3439.08 1616.59 3440.04 1615.87 3440.04 1615.39L3444.33 1613.24C3445.29 1612.77 3446.01 1612.53 3446.48 1612.53C3446.96 1612.53 3447.44 1612.29 3447.92 1611.81C3448.4 1611.81 3448.63 1611.57 3448.63 1611.09H3449.35C3450.31 1610.62 3450.78 1610.38 3450.78 1610.38C3451.26 1609.9 3451.98 1609.42 3452.93 1608.94C3453.89 1607.99 3454.84 1607.27 3455.8 1606.79C3456.76 1606.32 3457.71 1605.84 3458.67 1605.36C3461.53 1603.45 3462.97 1602.49 3462.97 1602.49C3464.4 1602.02 3465.35 1601.06 3465.83 1599.63C3466.79 1599.15 3466.55 1598.43 3465.12 1597.48H3462.97C3462.01 1597.96 3461.06 1598.43 3460.1 1598.91C3459.14 1599.39 3457.95 1600.11 3456.52 1601.06C3456.04 1601.54 3455.56 1602.02 3455.08 1602.49C3454.61 1602.49 3453.89 1602.97 3452.93 1603.93C3451.98 1603.93 3451.5 1604.41 3451.5 1605.36C3451.02 1605.84 3450.55 1606.08 3450.07 1606.08C3450.07 1606.08 3449.83 1606.32 3449.35 1606.79C3448.87 1606.79 3448.4 1607.03 3447.92 1607.51C3446.01 1608.47 3444.57 1609.42 3443.62 1610.38C3442.66 1610.86 3441.47 1611.57 3440.04 1612.53C3438.6 1613.48 3437.41 1614.44 3436.45 1615.39C3435.5 1616.35 3434.78 1617.07 3434.3 1617.54C3433.35 1618.02 3432.39 1618.74 3431.44 1619.69C3430.48 1620.65 3429.76 1621.37 3429.29 1621.84ZM3386.29 1655.53L3387.73 1654.09C3388.2 1653.62 3388.92 1653.14 3389.87 1652.66C3390.83 1651.71 3391.55 1650.99 3392.02 1650.51C3391.07 1651.94 3392.02 1651.71 3394.89 1649.79C3395.85 1648.84 3396.8 1648.36 3397.76 1648.36C3398.71 1648.36 3399.67 1647.88 3400.62 1646.93C3402.06 1645.97 3402.3 1645.02 3401.34 1644.06C3402.3 1643.11 3403.01 1642.39 3403.49 1641.91C3403.97 1641.43 3404.68 1640.72 3405.64 1639.76C3406.6 1639.28 3407.07 1638.81 3407.07 1638.33C3407.07 1637.85 3407.31 1637.37 3407.79 1636.89C3407.79 1636.42 3408.03 1636.18 3408.51 1636.18C3408.51 1635.22 3407.07 1636.18 3404.21 1639.04C3403.73 1639.52 3403.25 1640 3402.77 1640.48C3402.3 1640.48 3401.58 1640.96 3400.62 1641.91C3396.8 1644.78 3394.17 1646.93 3392.74 1648.36L3390.59 1650.51C3389.64 1650.99 3388.68 1651.94 3387.73 1653.38C3386.29 1654.33 3385.58 1655.05 3385.58 1655.53H3386.29ZM3498.08 1615.39C3483.27 1624.47 3468.46 1634.03 3453.65 1644.06C3439.32 1653.62 3426.18 1662.93 3414.24 1672.01C3402.3 1681.09 3392.74 1689.45 3385.58 1697.09C3378.41 1704.74 3375.07 1710.95 3375.54 1715.73C3377.45 1716.68 3381.04 1716.45 3386.29 1715.01C3390.59 1714.06 3396.8 1711.67 3404.92 1707.85C3413.04 1704.02 3424.03 1698.05 3437.89 1689.93C3447.92 1684.19 3458.43 1677.74 3469.42 1670.58C3480.88 1663.41 3492.11 1656.01 3503.09 1648.36C3514.56 1640.24 3525.55 1632.12 3536.06 1623.99C3547.04 1615.87 3556.84 1607.99 3565.44 1600.34C3566.87 1599.39 3569.02 1597.48 3571.89 1594.61C3575.23 1591.27 3576.42 1587.44 3575.47 1583.14C3574.99 1580.28 3570.93 1580.28 3563.29 1583.14C3555.64 1586.01 3547.05 1589.83 3537.49 1594.61C3528.41 1599.39 3519.81 1603.93 3511.69 1608.23C3503.57 1612.53 3499.03 1614.92 3498.08 1615.39Z" fill="#C2CF43"/>
<path fill-rule="evenodd" clip-rule="evenodd" d="M1488.73 1325.14C1486.82 1319.89 1484.67 1315.59 1482.29 1312.24C1504.48 1312.24 1526.75 1312.37 1549.08 1312.64L1538.2 1263.86C1496.89 1263.06 1458.19 1263.42 1422.09 1264.94C1366.68 1266.85 1317.47 1270.91 1274.48 1277.12C1231.48 1282.86 1193.74 1290.02 1161.26 1298.62C1128.77 1306.75 1100.59 1315.82 1076.7 1325.86C1053.29 1335.41 1033.23 1344.73 1016.51 1353.81C1006 1359.54 996.682 1365.04 988.561 1370.29C980.44 1375.55 973.274 1380.56 967.063 1385.34C948.91 1398.72 937.206 1411.62 931.951 1424.04C927.174 1436.46 926.696 1448.17 930.518 1459.16C934.34 1470.15 941.505 1480.42 952.015 1489.98C962.525 1499.05 973.99 1507.18 986.411 1514.34C999.31 1521.03 1012.21 1526.53 1025.11 1530.83C1038.48 1535.13 1049.47 1537.75 1058.07 1538.71C1086.73 1541.1 1112.77 1541.58 1136.18 1540.14C1160.06 1538.71 1181.8 1536.08 1201.39 1532.26H1202.82C1206.64 1531.3 1209.75 1530.59 1212.13 1530.11C1228.38 1526.29 1242.23 1521.99 1253.7 1517.21C1265.64 1512.43 1272.57 1508.37 1274.48 1505.03C1275.43 1502.16 1272.8 1500.25 1266.59 1499.29C1260.86 1498.34 1255.13 1497.86 1249.4 1497.86C1212.61 1497.86 1180.37 1496.9 1152.66 1494.99C1125.43 1493.08 1101.54 1490.45 1081 1487.11C1060.46 1483.29 1043.26 1479.23 1029.41 1474.93C1015.55 1470.63 1004.33 1466.09 995.727 1461.31C975.185 1450.32 963.958 1437.9 962.047 1424.04C977.812 1403.5 1001.7 1386.3 1033.71 1372.44C1065.71 1358.59 1103.21 1347.36 1146.21 1338.76C1189.2 1330.16 1236.26 1323.95 1287.38 1320.12C1338.49 1316.3 1391.28 1313.91 1445.74 1312.96C1420.9 1365.04 1394.62 1414.73 1366.92 1462.03C1353.73 1484.93 1340.6 1507.1 1327.53 1528.55C1326.82 1529.28 1326.1 1530.04 1325.35 1530.83C1317.71 1539.43 1307.68 1552.33 1295.26 1569.53C1282.84 1586.73 1266.83 1609.66 1247.25 1638.33C1244.86 1642.15 1242.23 1645.97 1239.36 1649.79C1236.98 1653.14 1234.59 1656.72 1232.2 1660.54C1220.73 1675.83 1209.75 1689.93 1199.24 1702.83C1189.2 1715.73 1179.17 1727.91 1169.14 1739.38C1159.11 1750.85 1149.31 1761.83 1139.76 1772.35C1130.21 1782.86 1120.41 1793.37 1110.38 1803.88C1080.76 1834.94 1055.2 1857.39 1033.71 1871.25C1012.21 1885.58 994.055 1894.9 979.245 1899.2C964.436 1903.5 952.971 1904.21 944.849 1901.35C936.728 1898.96 931.473 1896.33 929.085 1893.46C924.307 1889.64 920.963 1888.69 919.053 1890.6C918.097 1891.55 917.619 1892.99 917.619 1894.9C925.263 1908.27 934.34 1917.11 944.849 1921.41C955.837 1925.71 967.063 1926.91 978.529 1925C990.472 1923.56 1002.41 1919.5 1014.36 1912.81C1026.78 1906.12 1038.48 1898.48 1049.47 1889.88C1059.5 1882.71 1070.25 1873.87 1081.72 1863.36C1085 1860.35 1088.27 1857.29 1091.52 1854.2C1090.03 1855.96 1088.68 1857.58 1087.45 1859.06C1078.37 1870.53 1074.79 1875.31 1076.7 1873.4C1079.09 1871.49 1086.25 1863.36 1098.2 1849.03C1100.9 1846.02 1103.76 1842.76 1106.77 1839.25C1109.66 1836.33 1112.54 1833.38 1115.4 1830.4C1126.38 1819.41 1136.65 1808.66 1146.21 1798.15C1155.76 1787.63 1163.65 1779.03 1169.86 1772.35C1183.23 1757.53 1194.94 1743.68 1204.97 1730.78C1206.46 1728.94 1208 1727.05 1209.57 1725.11C1216.36 1717.95 1223.42 1710.53 1230.77 1702.83C1247.62 1685.16 1266.16 1665.89 1286.38 1645.03L1280.21 1653.38C1272.09 1663.89 1264.21 1674.16 1256.56 1684.19C1249.4 1693.75 1243.42 1701.87 1238.65 1708.56C1218.11 1731.02 1197.32 1759.45 1176.31 1793.85L1286.66 1660.54C1300.03 1644.3 1311.26 1631.16 1320.34 1621.13C1329.89 1610.62 1338.01 1601.54 1344.7 1593.89C1351.87 1586.25 1358.08 1579.32 1363.33 1573.11C1369.07 1566.42 1374.8 1558.54 1380.53 1549.46C1385.43 1541.89 1387.84 1536.6 1387.75 1533.6C1395.39 1520.71 1404.92 1504.5 1416.36 1484.96C1428.3 1464.89 1439.77 1445.06 1450.76 1425.48C1462.22 1405.41 1471.78 1387.73 1479.42 1372.44C1487.54 1356.67 1491.6 1346.64 1491.6 1342.34C1491.6 1335.65 1490.65 1329.92 1488.73 1325.14ZM1133.61 1806.71C1114.67 1827.62 1100.64 1843.45 1091.52 1854.2C1096.66 1849.31 1101.74 1844.33 1106.77 1839.25C1114.64 1830.09 1123.59 1819.25 1133.61 1806.71ZM1216.73 1696.38C1214.47 1699.51 1212.22 1702.62 1209.98 1705.69C1198.44 1721.86 1187.45 1736.91 1177.02 1750.85L1171.29 1756.58C1170.33 1757.06 1169.62 1757.3 1169.14 1757.3C1168.66 1757.3 1168.9 1756.82 1169.86 1755.86C1170.33 1754.43 1171.29 1752.76 1172.72 1750.85C1174.16 1748.46 1175.35 1746.78 1176.31 1745.83L1177.74 1744.4C1178.69 1743.44 1179.41 1742.48 1179.89 1741.53C1180.84 1740.1 1181.56 1738.9 1182.04 1737.95C1182.99 1736.99 1183.95 1735.8 1184.9 1734.36C1187.29 1732.45 1189.2 1730.54 1190.64 1728.63C1191.59 1727.67 1192.31 1726.72 1192.79 1725.76L1195.65 1722.9C1196.13 1721.94 1196.85 1720.98 1197.8 1720.03C1199.71 1717.64 1201.39 1715.49 1202.82 1713.58C1204.25 1711.19 1205.92 1708.8 1207.83 1706.41C1210.7 1702.11 1213.33 1698.77 1215.72 1696.38H1216.73ZM1646.69 1267.98L1657.69 1315.23C1684.31 1316.06 1708.35 1316.76 1733.81 1317.97C1773.93 1319.89 1812.39 1322.04 1849.17 1324.42C1885.96 1326.34 1919.88 1328.49 1950.93 1330.87C1981.98 1332.79 2009.21 1334.94 2032.62 1337.32C2056.51 1339.24 2075.38 1340.67 2089.23 1341.62C2115.5 1344.97 2137.48 1347.12 2155.16 1348.07C2173.31 1349.03 2188.12 1349.03 2199.58 1348.07C2211.53 1347.12 2220.84 1345.21 2227.53 1342.34C2234.7 1339.47 2240.43 1335.65 2244.73 1330.87C2249.5 1325.14 2252.13 1319.65 2252.61 1314.39C2253.09 1310.09 2250.94 1306.27 2246.16 1302.92C2241.38 1299.1 2232.07 1296.71 2218.21 1295.76C2211.05 1295.28 2199.58 1294.32 2183.82 1292.89C2168.05 1290.98 2149.42 1289.07 2127.92 1287.16C2106.91 1284.77 2083.97 1282.38 2059.13 1279.99C2034.77 1277.12 2010.41 1274.5 1986.04 1272.11C1961.68 1269.72 1938.27 1267.57 1915.82 1265.66C1893.36 1263.27 1873.54 1261.6 1856.34 1260.64C1839.14 1259.21 1825.77 1258.49 1816.21 1258.49C1806.66 1258.01 1802.6 1258.49 1804.03 1259.92C1805.94 1261.84 1813.35 1263.99 1826.24 1266.37C1839.62 1268.29 1855.62 1270.67 1874.26 1273.54C1893.36 1275.93 1913.67 1278.56 1935.16 1281.42C1956.66 1284.29 1976.49 1287.4 1994.64 1290.74C2013.27 1293.61 2028.8 1296.71 2041.22 1300.06C2054.12 1302.92 2061.04 1306.03 2062 1309.37C2044.8 1307.46 2025.22 1305.31 2003.24 1302.92C1984.61 1300.54 1962.16 1297.91 1935.88 1295.04C1909.61 1292.17 1880.7 1288.83 1849.17 1285.01H1848.46C1775.25 1277.01 1707.84 1271.29 1646.69 1267.98ZM2007.54 1323.71C2008.97 1322.27 2010.64 1321.56 2012.56 1321.56C2014.47 1322.04 2015.9 1322.04 2016.85 1321.56C2018.29 1321.08 2019.72 1320.84 2021.15 1320.84C2023.07 1316.06 2024.74 1313.91 2026.17 1314.39C2027.6 1315.35 2028.56 1316.54 2029.04 1317.97C2029.99 1318.93 2031.19 1319.89 2032.62 1320.84C2033.58 1321.8 2034.53 1322.51 2035.49 1322.99C2036.44 1323.47 2035.96 1324.19 2034.05 1325.14C2036.92 1326.1 2039.55 1327.05 2041.94 1328.01C2044.32 1328.49 2046 1328.96 2046.95 1329.44C2047.91 1329.92 2046.71 1330.4 2043.37 1330.87H2031.19C2026.41 1330.4 2021.63 1329.68 2016.85 1328.72C2012.08 1327.77 2008.49 1326.57 2006.11 1325.14C2006.11 1324.66 2006.58 1324.19 2007.54 1323.71ZM1921.55 1312.96C1921.55 1309.14 1922.51 1306.51 1924.42 1305.07C1926.8 1304.12 1928.48 1303.4 1929.43 1302.92C1930.87 1302.45 1933.25 1302.69 1936.6 1303.64C1939.94 1304.6 1942.81 1304.84 1945.2 1304.36C1947.59 1303.88 1949.5 1304.36 1950.93 1305.79C1952.84 1304.36 1954.51 1303.16 1955.95 1302.21C1957.86 1300.77 1959.29 1300.54 1960.25 1301.49C1961.68 1303.88 1963.11 1304.84 1964.54 1304.36C1965.98 1303.88 1966.46 1305.31 1965.98 1308.66C1965.98 1309.61 1965.5 1310.57 1964.54 1311.52C1966.46 1312.48 1968.84 1313.44 1971.71 1314.39C1974.58 1314.87 1977.2 1315.35 1979.59 1315.82C1982.46 1316.78 1985.56 1317.26 1988.91 1317.26C1984.13 1317.74 1979.59 1317.97 1975.29 1317.97C1966.69 1318.93 1959.29 1318.93 1953.08 1317.97C1947.82 1317.5 1941.85 1318.21 1935.16 1320.12C1928.95 1321.56 1924.65 1321.32 1922.27 1319.41C1921.79 1317.02 1921.55 1314.87 1921.55 1312.96ZM1869.24 1306.51C1868.28 1303.64 1869 1301.73 1871.39 1300.77C1874.26 1300.3 1875.93 1300.06 1876.41 1300.06C1877.36 1299.58 1880.23 1299.82 1885 1300.77C1889.78 1301.73 1893.36 1302.21 1895.75 1302.21C1898.62 1301.73 1901.72 1302.21 1905.07 1303.64C1907.93 1305.07 1910.32 1305.55 1912.23 1305.07C1914.62 1304.12 1914.62 1305.07 1912.23 1307.94C1910.32 1310.33 1908.89 1312.24 1907.93 1313.67C1906.98 1315.11 1904.59 1315.59 1900.77 1315.11C1896.95 1314.63 1893.84 1314.15 1891.45 1313.67C1889.54 1312.72 1887.39 1312.72 1885 1313.67C1882.14 1314.63 1879.51 1315.11 1877.12 1315.11C1875.21 1315.11 1873.06 1313.91 1870.67 1311.52C1869.72 1310.09 1869.24 1308.42 1869.24 1306.51ZM1702.99 1304.36C1701.56 1301.97 1701.8 1299.82 1703.71 1297.91C1706.1 1296.47 1707.53 1295.76 1708.01 1295.76C1708.49 1295.28 1709.92 1294.8 1712.31 1294.32C1715.17 1293.37 1717.32 1292.17 1718.76 1290.74C1720.19 1288.83 1722.58 1288.59 1725.92 1290.02C1728.79 1291.46 1733.57 1291.22 1740.25 1289.31C1746.94 1287.4 1753.63 1287.4 1760.32 1289.31C1763.66 1290.26 1767.48 1290.74 1771.78 1290.74C1776.56 1290.74 1781.34 1290.98 1786.12 1291.46H1799.73C1804.03 1290.98 1807.37 1291.22 1809.76 1292.17C1815.02 1293.13 1819.08 1293.37 1821.94 1292.89C1824.81 1292.41 1828.39 1292.65 1832.69 1293.61C1836.52 1294.56 1838.9 1294.8 1839.86 1294.32C1841.29 1293.85 1843.92 1294.8 1847.74 1297.19C1852.04 1300.06 1855.62 1301.73 1858.49 1302.21C1861.36 1302.69 1861.12 1304.12 1857.77 1306.51C1854.43 1308.9 1851.32 1310.09 1848.46 1310.09L1839.86 1308.66C1837.47 1308.66 1834.6 1307.7 1831.26 1305.79C1827.92 1303.88 1824.57 1303.16 1821.23 1303.64C1817.41 1304.12 1813.82 1304.6 1810.48 1305.07C1807.61 1305.55 1804.51 1306.51 1801.16 1307.94C1797.82 1309.85 1795.19 1311.29 1793.28 1312.24C1791.85 1313.2 1789.22 1313.91 1785.4 1314.39H1769.63C1766.77 1313.91 1764.62 1312.72 1763.19 1310.81C1761.75 1308.42 1759.12 1307.46 1755.3 1307.94C1751.96 1308.42 1748.14 1309.37 1743.84 1310.81C1740.02 1312.24 1737.15 1312.96 1735.24 1312.96C1733.33 1312.48 1731.18 1311.29 1728.79 1309.37C1726.4 1306.99 1724.25 1306.03 1722.34 1306.51C1719.95 1307.46 1717.32 1308.42 1714.46 1309.37C1711.59 1309.85 1708.73 1309.37 1705.86 1307.94C1704.43 1306.99 1703.47 1305.79 1702.99 1304.36ZM1655.7 1293.61C1658.09 1292.65 1661.91 1292.41 1667.16 1292.89H1672.18H1674.33C1674.81 1292.41 1675.52 1292.17 1676.48 1292.17C1677.91 1291.7 1680.06 1291.7 1682.93 1292.17C1696.3 1293.13 1700.13 1296 1694.39 1300.77L1690.09 1305.07C1690.09 1305.55 1687.94 1306.03 1683.64 1306.51C1678.87 1306.51 1674.09 1305.31 1669.31 1302.92C1664.54 1300.54 1659.52 1298.15 1654.26 1295.76C1653.31 1295.28 1653.79 1294.56 1655.7 1293.61ZM1135.46 1788.83C1136.89 1787.4 1137.61 1787.16 1137.61 1788.11C1137.13 1788.59 1137.13 1788.83 1137.61 1788.83C1137.13 1789.31 1136.89 1790.26 1136.89 1791.7C1135.94 1792.17 1135.22 1792.41 1134.74 1792.41C1134.74 1792.89 1134.27 1793.61 1133.31 1794.56C1131.88 1796.47 1130.68 1797.91 1129.73 1798.86C1128.77 1800.3 1127.82 1801.49 1126.86 1802.45C1127.82 1804.83 1127.58 1806.75 1126.14 1808.18C1124.23 1809.13 1122.56 1810.33 1121.13 1811.76C1118.74 1812.24 1116.83 1813.2 1115.4 1814.63C1113.96 1815.58 1112.53 1816.3 1111.1 1816.78C1110.14 1817.73 1110.14 1817.5 1111.1 1816.06C1110.14 1817.02 1108.71 1817.97 1106.8 1818.93C1105.36 1820.36 1104.41 1821.56 1103.93 1822.51C1102.02 1824.42 1100.83 1825.38 1100.35 1825.38H1099.63C1099.63 1824.9 1100.59 1823.23 1102.5 1820.36C1104.89 1817.97 1106.8 1816.3 1108.23 1815.35C1110.14 1813.43 1111.57 1812.24 1112.53 1811.76C1114.44 1809.85 1116.35 1807.7 1118.26 1805.31L1124.71 1798.86C1125.67 1797.43 1126.62 1796.23 1127.58 1795.28L1130.44 1792.41C1131.88 1791.46 1132.83 1790.5 1133.31 1789.55C1133.79 1789.07 1134.5 1788.83 1135.46 1788.83Z" fill="#C2CF43"/>
</svg>
